<?xml version="1.0" standalone="no"?>
<!DOCTYPE svg PUBLIC "-//W3C//DTD SVG 20010904//EN"
 "http://www.w3.org/TR/2001/REC-SVG-20010904/DTD/svg10.dtd">
<svg version="1.0" xmlns="http://www.w3.org/2000/svg"
 width="400.000000pt" height="400.000000pt" viewBox="0 0 400.000000 400.000000"
 preserveAspectRatio="xMidYMid meet">
<metadata>
Created by potrace 1.13, written by Peter Selinger 2001-2015
</metadata>
<g transform="translate(0.000000,400.000000) scale(0.100000,-0.100000)"
fill="#000000" stroke="none">
<path d="M47 3993 c-4 -3 -7 -15 -7 -25 0 -11 -7 -18 -20 -18 -19 0 -20 -7
-20 -133 0 -90 4 -137 12 -145 9 -9 9 -15 0 -24 -9 -9 -12 -89 -12 -300 l0
-288 24 -12 c14 -6 30 -24 37 -40 10 -24 16 -28 38 -24 36 8 48 -2 56 -48 l8
-38 -26 16 c-24 16 -26 16 -45 -8 -10 -14 -30 -30 -44 -36 -23 -11 -48 -58
-48 -91 0 -8 10 -19 22 -24 21 -10 45 -65 28 -65 -10 0 -23 -40 -20 -65 1 -11
13 -30 26 -42 13 -12 24 -29 24 -38 0 -11 12 -15 50 -15 38 0 55 -5 72 -22
l21 -21 -30 -27 -31 -28 14 -53 c20 -75 39 -92 86 -77 31 9 41 8 62 -6 15 -9
26 -26 26 -37 0 -12 22 -49 48 -83 27 -33 73 -112 103 -175 51 -109 54 -112
61 -82 6 22 16 32 36 37 54 12 62 16 62 29 0 8 12 21 28 30 15 9 39 37 54 61
50 81 117 91 323 49 130 -26 283 -77 300 -99 6 -8 29 -19 51 -25 116 -31 196
-136 264 -344 l22 -69 44 49 c38 42 42 52 37 83 -3 19 -17 47 -30 61 -37 40
-28 67 37 111 30 20 69 40 85 44 62 13 71 41 28 87 -16 17 -23 28 -18 26 51
-23 81 -50 197 -177 95 -103 145 -150 176 -164 47 -21 55 -38 18 -38 -42 0
-57 -10 -46 -30 15 -28 72 -50 112 -44 24 4 61 -2 108 -16 55 -17 96 -22 171
-22 115 1 130 -7 179 -94 38 -65 86 -94 157 -94 43 0 51 -4 76 -35 15 -19 34
-35 42 -35 15 0 119 -83 175 -141 20 -20 47 -39 60 -41 21 -2 25 -8 23 -33 -1
-17 7 -41 21 -60 12 -16 40 -62 61 -102 22 -41 48 -76 62 -82 25 -11 30 -40
12 -69 -9 -14 -7 -27 11 -61 13 -26 19 -52 16 -66 -5 -18 0 -25 25 -35 50 -21
78 -49 89 -91 15 -56 39 -76 101 -84 89 -12 96 -17 110 -82 12 -51 22 -66 86
-132 l73 -75 0 1372 c0 1250 -1 1372 -16 1380 -14 8 -14 10 -1 15 12 4 15 28
16 119 1 102 -1 114 -19 125 -16 11 -21 10 -28 -3 -15 -26 -78 -28 -118 -4
-42 27 -46 62 -9 86 25 16 39 16 136 -2 l37 -6 0 66 c0 49 -4 66 -14 66 -8 0
-17 -12 -20 -26 -4 -16 -11 -23 -20 -20 -23 9 -114 -16 -114 -31 0 -7 -12 -15
-27 -19 -16 -3 -33 -7 -39 -9 -7 -2 -21 3 -33 12 -18 12 -20 17 -9 30 7 8 22
19 35 24 14 5 23 17 23 29 0 12 9 24 23 29 21 8 87 90 87 108 0 5 -11 20 -25
33 -36 33 -31 47 23 73 32 15 48 29 50 44 4 30 29 50 44 35 9 -9 7 -16 -5 -30
-11 -11 -15 -26 -11 -36 4 -10 -1 -28 -13 -44 -32 -45 -34 -60 -10 -77 12 -8
30 -15 40 -15 17 0 18 9 13 128 -2 70 -5 134 -5 142 0 8 2 70 5 138 l5 122
-50 0 -51 0 21 -21 c17 -17 19 -23 8 -31 -11 -7 -11 -11 -1 -15 6 -2 12 -20
12 -38 0 -23 7 -39 21 -48 15 -11 17 -16 7 -20 -10 -4 -11 -7 0 -18 28 -30 2
-41 -30 -12 -17 15 -20 15 -34 1 -18 -18 -11 -38 12 -38 21 0 17 -14 -8 -25
-13 -6 -28 -20 -34 -32 -18 -37 -46 -64 -84 -80 -19 -8 -29 -17 -22 -20 6 -3
12 -20 12 -39 0 -30 -4 -35 -30 -40 -16 -4 -29 -9 -28 -13 5 -47 -4 -61 -52
-82 -27 -12 -50 -25 -50 -30 0 -24 -90 -27 -127 -3 -22 14 -64 7 -77 -14 -8
-14 19 -33 36 -27 8 3 27 1 42 -4 25 -10 26 -12 12 -33 -8 -13 -18 -41 -22
-63 -3 -22 -12 -51 -20 -65 -7 -14 -15 -33 -18 -43 -8 -24 -40 -18 -44 9 -2
11 6 28 18 39 11 10 20 23 20 29 0 12 -60 56 -77 56 -22 0 -84 67 -77 84 7 17
54 23 54 6 0 -5 5 -10 11 -10 7 0 9 11 6 30 -4 17 -2 30 3 30 5 0 11 8 15 19
3 10 22 37 43 59 21 23 55 66 76 96 21 31 42 56 47 56 5 0 9 8 9 18 0 41 32
36 55 -9 14 -26 13 -33 -5 -80 l-19 -52 25 -24 c23 -21 28 -22 43 -10 9 8 26
18 38 21 18 6 53 72 41 79 -1 2 -20 10 -41 20 -47 21 -54 39 -30 74 11 15 20
40 21 56 2 25 -1 27 -24 21 -17 -4 -31 -1 -45 12 -20 18 -22 18 -51 1 -28 -16
-32 -16 -49 -1 -17 15 -15 20 30 108 26 51 45 98 43 105 -6 17 -3058 16 -3066
-1 -5 -10 -7 -10 -12 0 -4 9 -60 12 -228 12 -123 0 -226 -3 -229 -7z m3265
-372 c15 -21 19 -22 53 -11 32 10 39 10 54 -4 13 -14 14 -18 2 -25 -8 -5 -20
-7 -28 -4 -7 3 -24 -2 -36 -10 -17 -11 -28 -12 -41 -5 -22 12 -29 5 -46 -52
-8 -25 -20 -56 -27 -70 -7 -14 -13 -30 -13 -36 0 -6 -8 -18 -19 -28 -17 -15
-19 -15 -31 -1 -11 13 -11 23 -2 49 13 35 2 87 -23 114 -13 14 -45 6 -45 -12
0 -6 -25 -33 -55 -59 -44 -38 -60 -47 -78 -41 -26 8 -37 22 -37 49 0 14 21 34
65 63 57 38 65 47 65 74 0 17 -7 39 -15 48 -12 13 -12 20 -2 33 27 35 105 -16
110 -73 1 -22 17 -28 17 -7 0 15 56 75 86 93 17 10 20 7 24 -25 3 -20 13 -47
22 -60z m-840 -61 c28 -17 34 -18 48 -5 9 8 27 16 41 17 22 3 24 -1 27 -42 3
-54 20 -90 41 -90 41 -1 65 -46 37 -69 -19 -16 -47 -1 -75 38 -11 15 -32 36
-46 45 -24 16 -26 15 -60 -21 -45 -47 -44 -77 3 -81 37 -4 42 -24 12 -45 -16
-11 -30 -12 -81 -1 -91 19 -90 17 -83 67 5 36 3 45 -11 50 -9 4 -25 2 -35 -3
-13 -7 -21 -7 -25 0 -9 14 2 28 35 45 26 13 30 13 54 -10 30 -27 34 -29 55
-16 19 12 6 41 -19 41 -18 0 -20 4 -14 23 3 12 11 24 16 26 5 2 13 14 18 27
11 29 20 30 62 4z m288 -270 c6 -11 8 -20 4 -20 -4 0 3 -12 17 -26 24 -25 24
-26 4 -40 -11 -8 -26 -11 -35 -7 -18 8 -48 7 -112 -2 -44 -7 -48 -6 -48 12 0
25 23 46 86 78 59 30 70 31 84 5z m-2678 -37 c11 -12 15 -37 15 -75 -2 -67 5
-78 34 -53 17 17 22 17 29 5 20 -31 11 -61 -20 -73 -16 -6 -30 -15 -30 -19 0
-4 -6 -8 -13 -8 -16 0 -67 102 -67 136 0 14 -4 34 -10 44 -16 31 -3 50 41 59
3 0 13 -7 21 -16z m3548 -63 c23 -23 60 -27 60 -6 0 33 25 27 64 -17 29 -32
53 -49 84 -57 31 -8 42 -16 42 -30 0 -10 -5 -22 -10 -25 -6 -4 -7 -11 -4 -17
4 -6 -1 -6 -14 1 -31 17 -54 14 -50 -6 2 -13 11 -17 27 -15 25 4 91 -26 91
-41 0 -5 -11 -18 -25 -29 -14 -11 -25 -28 -25 -39 0 -14 -5 -19 -17 -17 -11 2
-17 11 -15 22 4 23 -14 36 -49 36 -15 0 -37 8 -50 18 -33 26 -70 33 -107 22
-31 -8 -32 -7 -32 20 0 39 34 59 59 36 10 -9 22 -16 28 -16 14 0 24 26 17 43
-6 18 -74 47 -108 47 -26 0 -26 0 -11 30 8 16 15 36 15 45 0 20 6 19 30 -5z
m-511 -9 c12 -7 10 -14 -8 -36 -11 -15 -21 -34 -21 -41 0 -8 -6 -14 -14 -14
-8 0 -21 -6 -29 -14 -23 -24 -81 -56 -99 -56 -10 0 -25 -11 -34 -25 -9 -14
-26 -25 -38 -25 -11 0 -28 -5 -36 -10 -10 -6 -21 -3 -37 12 -38 36 -30 53 23
49 42 -4 31 54 -13 70 -6 2 -13 13 -17 25 -5 17 1 24 29 40 l36 19 46 -48 c32
-35 56 -50 81 -54 31 -5 34 -4 29 13 -10 33 -17 70 -11 56 3 -6 10 -9 16 -6 6
4 23 7 37 8 19 1 27 7 29 24 4 24 9 26 31 13z m-2251 -933 c4 -31 1 -38 -12
-38 -9 0 -16 -5 -16 -11 0 -7 -10 -9 -25 -7 -28 6 -75 -30 -75 -57 0 -8 -4
-15 -9 -15 -5 0 -14 -12 -20 -27 -6 -16 -28 -39 -49 -52 -20 -13 -49 -32 -64
-42 l-26 -18 -21 42 c-12 24 -21 53 -21 64 0 11 -11 37 -25 58 -20 29 -23 40
-14 51 9 11 8 18 -1 29 -11 13 -15 13 -21 3 -5 -7 -6 -20 -3 -30 8 -26 -13
-31 -30 -6 -20 28 -20 42 -2 35 14 -6 15 3 4 88 -3 16 3 20 28 20 18 1 38 6
46 12 8 7 36 11 68 9 78 -5 158 -50 188 -104 15 -26 31 -42 43 -42 16 0 17 3
7 28 -7 15 -15 31 -20 37 -13 15 -9 45 9 69 l18 24 19 -41 c10 -23 21 -58 24
-79z m2388 -478 c21 -17 60 -46 87 -66 26 -20 47 -44 47 -53 0 -10 9 -26 20
-36 48 -44 3 -58 -47 -15 -21 17 -52 44 -69 58 -17 15 -56 45 -87 67 -66 47
-75 75 -23 75 21 0 46 -10 72 -30z"/>
<path d="M3840 3921 c0 -11 5 -21 11 -23 19 -6 -41 -68 -65 -68 -12 0 -27 -5
-33 -11 -6 -6 -20 -8 -32 -4 -16 5 -21 15 -21 41 0 37 -5 39 -47 23 -17 -6
-23 -13 -16 -17 6 -4 14 -19 18 -34 8 -33 30 -54 40 -38 3 5 15 10 26 10 17 0
19 -7 19 -60 0 -59 0 -60 28 -60 33 0 62 27 62 58 0 12 5 31 10 42 6 11 15 29
20 40 13 26 13 100 -1 100 -5 0 -7 5 -4 10 3 6 1 10 -4 10 -6 0 -11 -9 -11
-19z"/>
<path d="M1931 1918 c-7 -24 -20 -59 -29 -78 -17 -38 -78 -125 -70 -100 3 8 2
24 -3 35 -6 15 -7 11 -5 -15 2 -19 7 -42 10 -51 4 -9 -4 -31 -19 -53 -14 -20
-25 -39 -25 -42 0 -9 61 4 76 17 12 9 20 9 39 -1 46 -25 61 -2 55 83 -2 29 17
36 38 15 6 -6 36 -12 66 -13 32 -2 72 -11 97 -23 48 -24 66 -20 30 7 -34 26
-111 51 -175 58 -31 3 -56 10 -56 14 0 11 37 49 42 44 2 -2 10 5 17 17 11 18
11 20 -1 16 -9 -4 -14 1 -14 14 0 18 2 18 23 -6 12 -14 29 -26 38 -26 10 0 6
10 -16 33 -17 17 -43 47 -56 65 -14 17 -31 32 -38 32 -6 0 -17 -19 -24 -42z"/>
<path d="M1145 1830 c-44 -44 -83 -80 -86 -80 -4 0 -40 15 -81 34 -84 38 -134
56 -157 56 -9 -1 11 -14 44 -30 33 -17 89 -48 125 -70 36 -22 73 -40 83 -40 9
0 17 -5 17 -11 0 -8 4 -9 13 0 8 6 18 7 22 3 5 -4 6 0 2 9 -8 23 43 32 97 18
22 -6 66 -8 96 -5 30 3 69 2 87 -3 29 -8 32 -7 38 16 3 14 1 31 -4 36 -16 16
-13 37 3 31 8 -3 23 -1 32 4 13 7 3 11 -44 17 -34 4 -62 11 -62 16 0 4 -7 6
-15 3 -8 -4 -15 -2 -15 4 0 10 -26 21 -75 31 -21 4 -29 11 -27 24 5 30 -12 19
-93 -63z"/>
<path d="M150 1378 c97 -44 174 -81 180 -89 3 -3 26 -20 51 -37 53 -36 138
-130 191 -213 20 -30 44 -61 52 -68 9 -8 16 -17 16 -22 0 -16 -26 -9 -45 11
-18 20 -107 80 -118 80 -3 0 17 -21 45 -47 57 -54 128 -139 128 -155 0 -6 -8
-4 -18 5 -23 21 -39 22 -22 2 6 -8 9 -18 6 -23 -6 -10 37 -74 76 -113 14 -14
36 -56 50 -94 15 -39 35 -95 47 -125 11 -30 20 -49 20 -41 2 43 -71 251 -91
259 -5 2 -6 7 -3 12 3 4 -2 13 -10 20 -18 15 -20 34 -3 24 7 -4 8 -3 4 5 -4 6
-11 9 -15 6 -4 -2 -11 44 -15 103 -7 124 -44 362 -58 377 -10 10 -3 -115 8
-160 4 -16 3 -17 -5 -5 -15 22 -23 6 -11 -25 20 -51 0 -39 -24 16 -55 125
-305 296 -471 324 -34 5 -29 1 35 -27z"/>
<path d="M2 1218 c2 -17 17 -27 63 -43 130 -45 323 -164 482 -295 17 -14 34
-13 31 2 -16 74 -324 279 -509 338 -75 24 -71 25 -67 -2z"/>
<path d="M947 1017 c-8 -7 -17 -36 -21 -67 -3 -30 -10 -77 -15 -105 -5 -27
-10 -90 -11 -140 -1 -104 -23 -297 -31 -275 -3 8 -5 -16 -4 -55 2 -38 11 -88
20 -109 18 -43 89 -151 105 -161 5 -3 32 12 60 34 28 22 60 43 71 46 26 9 89
-3 89 -15 0 -6 7 -10 15 -10 21 0 23 66 4 128 -9 28 -7 41 19 92 34 70 29 79
-43 88 -40 4 -43 6 -28 18 20 14 19 15 -56 34 -91 24 -108 53 -112 190 -1 41
-8 107 -15 145 -13 75 -14 116 -1 126 10 8 -1 36 -18 43 -7 2 -20 -1 -28 -7z"/>
<path d="M0 953 c0 -37 3 -39 68 -71 37 -18 92 -46 122 -62 84 -45 137 -37 82
11 -32 29 -252 159 -267 159 -3 0 -5 -17 -5 -37z"/>
<path d="M3308 574 c-4 -5 -27 -20 -53 -33 -26 -13 -96 -63 -157 -112 -110
-89 -145 -107 -133 -70 3 11 1 22 -5 26 -5 3 -11 32 -11 63 l-2 57 -11 -71
c-7 -40 -26 -105 -43 -145 -65 -155 -89 -223 -85 -241 4 -15 -49 -19 -189 -15
-169 5 -261 13 -308 29 -19 6 -69 12 -110 13 -42 1 -84 6 -93 10 -10 4 -18 3
-18 -3 0 -5 -38 -10 -85 -11 -47 -1 -85 2 -85 6 0 5 -20 7 -45 5 -26 -2 -45 0
-45 6 0 6 -9 8 -20 5 -26 -7 -25 -19 6 -60 l25 -33 836 0 c759 0 834 1 822 16
-18 22 -84 54 -111 54 -13 0 -30 5 -38 10 -12 8 -9 10 11 10 54 0 91 13 99 34
4 12 20 50 35 86 15 36 29 70 32 76 8 20 -27 24 -65 8 -20 -8 -58 -36 -84 -62
-27 -25 -48 -43 -48 -38 0 16 106 119 141 137 65 33 68 92 7 123 -19 10 -31 9
-66 -7 -44 -19 -65 -16 -44 5 20 20 14 48 -16 76 -16 15 -31 34 -34 42 -2 8
-7 10 -10 4z"/>
<path d="M1336 405 c-14 -11 -17 -21 -12 -42 4 -15 10 -41 13 -58 3 -16 14
-40 25 -52 11 -11 22 -40 25 -62 3 -23 10 -44 14 -47 16 -9 9 -33 -11 -39 -14
-4 -31 6 -64 40 l-45 46 -26 -41 c-30 -48 -25 -45 -144 -69 -50 -10 -95 -21
-98 -24 -3 -4 -3 -18 1 -32 l6 -25 209 0 c173 0 211 3 221 15 16 19 30 19 30
0 0 -10 10 -15 31 -15 16 0 28 4 24 9 -3 6 9 7 31 4 34 -6 36 -5 25 15 -14 27
-14 39 0 25 9 -9 17 -8 34 3 20 13 25 12 59 -15 23 -19 32 -31 24 -34 -8 -4
-7 -6 4 -6 9 -1 20 4 23 9 5 8 11 7 21 -1 21 -17 27 -6 13 25 -13 28 -66 66
-93 66 -9 0 -16 4 -16 9 0 5 -3 16 -6 24 -3 10 1 17 13 20 14 3 13 5 -8 11
-16 5 -50 2 -82 -6 l-55 -14 -13 40 c-25 80 -72 171 -105 204 -37 36 -41 37
-68 17z"/>
</g>
</svg>
