<?xml version="1.0" standalone="no"?>
<!DOCTYPE svg PUBLIC "-//W3C//DTD SVG 20010904//EN"
 "http://www.w3.org/TR/2001/REC-SVG-20010904/DTD/svg10.dtd">
<svg version="1.0" xmlns="http://www.w3.org/2000/svg"
 width="400.000000pt" height="400.000000pt" viewBox="0 0 400.000000 400.000000"
 preserveAspectRatio="xMidYMid meet">
<metadata>
Created by potrace 1.13, written by Peter Selinger 2001-2015
</metadata>
<g transform="translate(0.000000,400.000000) scale(0.100000,-0.100000)"
fill="#000000" stroke="none">
<path d="M380 3981 c0 -10 -7 -31 -14 -47 -17 -31 -11 -51 9 -34 16 13 25 2
55 -64 21 -48 21 -50 4 -63 -15 -11 -30 -14 -71 -13 -5 0 -8 8 -9 18 -2 37 -5
42 -22 42 -10 0 -29 -11 -42 -25 -28 -30 -41 -31 -65 -5 -10 11 -30 20 -45 20
-16 0 -28 5 -27 13 2 60 -1 65 -49 69 -28 2 -49 -1 -56 -9 -6 -7 -19 -13 -29
-13 -11 0 -19 -5 -19 -11 0 -28 83 -73 131 -70 29 1 38 -2 42 -18 2 -11 -2
-29 -10 -41 -14 -20 -14 -24 1 -38 14 -14 17 -13 30 20 9 20 22 38 31 42 20 7
68 -42 60 -62 -3 -7 -5 -22 -5 -33 0 -13 -12 -25 -34 -34 -18 -8 -41 -26 -50
-40 -28 -43 -87 -26 -70 20 4 8 12 15 20 15 21 0 17 13 -10 32 -26 19 -67 13
-112 -17 -21 -13 -22 -18 -12 -41 9 -19 9 -30 0 -44 -9 -15 -7 -21 11 -33 20
-13 26 -13 42 -1 24 18 64 18 71 1 3 -8 16 -12 33 -9 32 4 44 -8 35 -33 -5
-12 -14 -15 -33 -12 -14 3 -47 -2 -73 -11 -47 -16 -63 -32 -33 -32 8 0 15 -7
15 -15 0 -9 7 -27 16 -40 11 -16 15 -38 12 -62 -5 -42 8 -93 24 -93 6 0 26 10
46 22 45 28 67 16 67 -37 0 -24 6 -40 15 -45 8 -4 25 -12 38 -19 18 -9 28 -8
53 4 34 18 69 12 69 -12 0 -8 -9 -28 -21 -44 -11 -16 -18 -33 -14 -38 3 -5 -2
-28 -11 -51 -19 -47 -16 -53 20 -44 17 4 29 17 38 40 8 22 19 34 31 34 18 0
18 -1 0 -27 -23 -34 -20 -75 5 -66 9 4 32 23 52 43 32 34 41 38 104 43 70 7
91 3 81 -14 -4 -5 -35 -9 -71 -9 -36 0 -74 -5 -85 -10 -27 -15 -49 -63 -49
-110 0 -22 -3 -40 -6 -40 -12 0 -33 34 -34 53 0 31 -19 18 -26 -19 -8 -46 -47
-73 -76 -55 -11 7 -22 10 -25 7 -7 -7 -43 38 -43 53 0 5 12 21 26 34 31 29 19
42 -20 21 -16 -7 -38 -14 -50 -14 -34 0 -37 -9 -15 -43 23 -38 24 -57 5 -57
-18 0 -96 -51 -96 -62 0 -19 -38 -6 -48 17 -18 40 -14 69 13 95 16 15 22 27
16 33 -12 12 -87 -46 -96 -73 -4 -11 -11 -20 -16 -20 -5 0 -9 -4 -9 -10 0 -5
7 -10 15 -10 17 0 55 -56 55 -81 0 -9 -9 -24 -20 -34 -21 -19 -24 -56 -5 -62
17 -5 61 40 69 70 5 23 10 27 29 21 29 -8 55 -32 62 -55 17 -53 44 7 40 89 -3
54 -1 64 18 77 30 21 33 20 73 -20 39 -40 64 -44 82 -15 7 11 23 20 37 20 14
0 30 -9 37 -20 7 -11 20 -20 29 -20 29 0 87 -80 73 -102 -4 -6 -3 -8 4 -5 13
9 62 -49 62 -74 0 -13 -7 -19 -22 -19 -17 0 -19 -3 -10 -12 7 -7 12 -20 12
-29 0 -29 19 -32 32 -5 17 38 43 32 79 -19 18 -25 36 -45 39 -45 4 0 22 -30
40 -67 23 -47 35 -89 41 -142 4 -42 8 -77 8 -78 1 -2 21 -3 45 -3 95 0 398
-80 447 -118 13 -11 42 -25 64 -32 43 -14 100 -51 128 -84 32 -39 94 -170 115
-245 12 -40 23 -75 25 -77 2 -2 20 18 40 45 46 59 47 92 7 138 -38 43 -38 65
2 95 41 31 112 68 132 68 22 0 29 17 13 32 -8 7 -12 20 -10 29 3 11 -5 24 -19
33 -22 15 -27 14 -63 -4 -41 -21 -68 -17 -38 5 16 12 14 14 -23 20 -34 6 -41
11 -39 29 4 32 5 32 18 14 32 -41 74 -15 43 27 -12 16 -16 17 -30 6 -23 -19
-33 -5 -13 17 9 10 13 22 9 28 -8 8 -32 83 -32 97 0 4 14 13 30 22 17 9 30 22
30 29 0 8 7 17 16 20 31 12 44 6 44 -19 0 -25 -19 -36 -21 -12 0 6 -5 0 -11
-16 -8 -21 -6 -34 9 -58 17 -30 22 -32 88 -35 75 -4 95 -17 95 -60 0 -27 -25
-51 -35 -34 -4 7 -21 10 -39 7 -21 -3 -40 2 -58 15 -28 19 -28 19 -28 -1 0
-38 19 -71 40 -71 38 0 95 -38 145 -97 27 -32 89 -99 138 -149 l88 -91 43 4
c51 6 63 -6 40 -42 -11 -17 -25 -25 -45 -25 -39 0 -44 -15 -13 -39 18 -14 41
-21 70 -21 l44 0 -6 33 c-3 17 -7 40 -9 49 -1 10 3 34 10 55 12 36 16 38 49
35 26 -3 36 0 36 11 0 16 -26 41 -52 50 -25 9 -23 59 2 82 28 26 25 53 -7 66
-22 8 -34 7 -55 -5 -14 -9 -36 -16 -47 -16 -12 0 -21 -5 -21 -11 0 -6 -6 -9
-14 -6 -8 3 -17 1 -20 -6 -3 -7 -5 7 -3 31 l3 42 -51 0 c-28 0 -56 -5 -61 -10
-15 -15 -44 -2 -44 19 0 27 20 42 42 30 10 -5 23 -7 28 -4 6 3 10 0 10 -7 0
-7 10 -1 23 14 22 26 65 39 129 38 29 0 43 25 39 72 -3 32 27 52 69 46 24 -4
29 0 34 24 7 36 43 38 84 3 38 -32 67 -32 96 1 18 22 27 25 54 19 37 -8 59
-37 39 -53 -19 -16 -97 -45 -104 -39 -3 4 -18 0 -34 -9 -26 -13 -32 -13 -69 6
-44 22 -64 19 -55 -10 4 -12 -1 -19 -17 -24 l-23 -7 22 -9 c23 -10 63 -3 63
11 0 5 5 9 10 9 16 0 11 -27 -6 -34 -15 -6 -15 -8 1 -26 10 -11 25 -20 33 -20
10 0 12 -6 7 -22 -4 -13 -9 -38 -12 -56 -4 -24 -13 -36 -39 -48 -42 -20 -48
-28 -39 -61 l6 -26 33 32 c17 17 42 31 54 31 12 0 27 9 34 20 17 27 37 25 78
-10 39 -34 56 -37 81 -14 20 18 59 11 59 -11 0 -17 -72 -55 -114 -60 -16 -3
-34 -9 -40 -15 -15 -15 -35 -12 -64 10 l-26 21 -13 -26 c-16 -29 -10 -45 16
-45 9 0 21 -4 27 -9 5 -5 22 -11 38 -13 16 -2 34 -11 40 -21 9 -15 7 -22 -12
-37 -18 -15 -29 -17 -53 -10 -51 15 -112 13 -143 -3 -27 -15 -28 -17 -10 -23
25 -10 33 -22 26 -46 -5 -19 -9 -20 -57 -4 -11 4 -2 -3 20 -15 34 -19 60 -24
166 -28 145 -7 148 -9 191 -94 34 -67 96 -103 158 -93 36 6 41 3 65 -28 14
-19 38 -39 53 -44 31 -11 187 -144 196 -167 3 -9 18 -15 35 -15 32 0 43 -16
30 -42 -6 -12 1 -31 27 -70 20 -29 47 -74 60 -100 15 -29 36 -54 55 -64 25
-12 30 -20 24 -37 -16 -53 -16 -67 5 -106 17 -34 19 -46 9 -57 -6 -8 -10 -15
-8 -17 2 -1 27 -13 54 -27 44 -22 52 -31 65 -72 21 -66 43 -83 124 -96 37 -6
70 -13 72 -15 2 -1 11 -32 20 -66 14 -57 23 -71 85 -132 l69 -68 0 551 c-1
529 -1 550 -19 534 -9 -9 -23 -16 -29 -16 -14 0 -32 -32 -32 -58 0 -10 11 -25
25 -32 30 -16 29 -45 0 -45 -14 0 -21 8 -23 28 -3 22 -8 27 -31 27 -36 0 -51
17 -51 57 0 31 1 32 31 26 l31 -6 -7 47 c-7 43 -6 47 11 46 37 -4 64 0 64 10
0 6 -7 10 -15 10 -18 0 -38 37 -31 56 3 8 19 14 35 14 23 0 31 -5 34 -22 3
-15 5 -11 6 12 1 29 -4 38 -29 52 -17 9 -30 24 -30 31 0 20 29 30 46 16 12
-10 14 1 14 65 0 74 -1 76 -25 76 -13 0 -28 -7 -33 -16 -7 -13 -13 -14 -29 -5
-28 14 -33 6 -33 -51 0 -45 -2 -48 -26 -48 -41 0 -92 -29 -115 -66 -19 -32
-25 -35 -65 -33 -35 2 -48 -2 -69 -23 -15 -15 -22 -29 -16 -32 6 -4 4 -24 -6
-54 -24 -71 -27 -76 -66 -95 -21 -9 -37 -22 -37 -27 0 -6 -9 -10 -19 -10 -39
0 -35 61 7 97 15 12 23 26 19 30 -5 4 -12 1 -17 -7 -5 -9 -7 3 -3 31 3 24 13
50 21 57 14 10 14 16 4 32 -6 11 -12 29 -12 40 0 14 -7 20 -23 20 -32 0 -47
18 -47 57 0 22 -5 33 -15 33 -8 0 -38 23 -67 51 -56 53 -176 139 -195 139 -7
0 -20 13 -29 29 -10 17 -29 31 -45 35 -15 3 -30 14 -34 25 -8 27 15 61 42 61
25 0 56 -40 48 -61 -4 -11 6 -14 47 -12 105 3 98 0 98 37 0 53 43 74 125 61
56 -9 75 -98 29 -140 -27 -25 -64 -30 -64 -8 0 17 -11 16 -34 0 -16 -12 -15
-15 15 -45 25 -25 42 -32 71 -32 40 0 48 -12 24 -39 -13 -14 -9 -23 31 -71
l46 -55 -8 35 c-4 19 -11 39 -16 45 -16 16 -10 51 12 71 21 19 21 18 40 -5 10
-13 19 -31 19 -40 0 -9 6 -25 13 -36 22 -32 26 -64 12 -92 -12 -24 -12 -30 6
-55 25 -34 36 -35 51 -3 6 13 19 27 30 30 32 11 19 23 -22 21 -33 -2 -40 1
-40 16 0 10 7 30 17 44 10 15 16 43 15 69 -2 37 2 46 25 63 55 37 66 36 96
-10 13 -21 15 -40 10 -89 -5 -50 -4 -61 8 -57 8 3 17 27 22 58 4 30 14 62 23
71 16 18 11 44 -6 34 -15 -9 -60 26 -60 46 0 28 30 36 47 13 7 -10 20 -27 28
-37 8 -9 15 -22 15 -27 0 -6 10 -10 22 -10 12 0 18 -3 15 -7 -8 -7 21 -43 35
-43 16 0 8 39 -12 53 -25 18 -17 47 14 47 11 0 34 -7 50 -15 15 -8 30 -15 32
-15 9 0 3 30 -6 31 -20 3 -25 5 -47 19 -23 15 -32 60 -13 60 16 0 12 18 -10
40 -15 15 -19 28 -14 48 4 15 8 41 9 57 1 17 5 42 9 57 5 15 3 35 -4 48 -11
20 -7 27 28 64 44 45 65 106 38 106 -26 0 -32 48 -7 69 21 18 20 18 -19 30
-35 10 -40 15 -40 43 0 30 1 31 40 25 l40 -5 0 96 c0 89 -1 95 -15 75 -9 -12
-17 -41 -20 -64 -4 -47 -18 -61 -49 -50 -29 11 -30 26 -5 50 25 23 25 22 -13
39 -38 16 -40 62 -3 62 20 0 25 5 25 24 0 31 25 40 56 20 23 -16 24 -15 24 6
0 12 -15 35 -35 53 -19 17 -35 37 -35 45 0 11 9 13 35 9 l35 -6 0 40 c0 33 -3
39 -22 39 -12 0 -29 7 -39 16 -24 22 -86 9 -95 -20 -4 -11 -14 -27 -23 -33
-15 -12 -14 -14 2 -27 9 -7 17 -20 17 -29 0 -9 12 -22 28 -29 34 -16 39 -47
12 -75 -11 -12 -20 -27 -20 -33 0 -5 -4 -10 -10 -10 -5 0 -10 6 -10 13 0 8 -2
9 -8 1 -4 -7 -16 -13 -27 -15 -28 -6 -30 -34 -5 -59 23 -23 23 -49 0 -60 -8
-4 -25 -12 -37 -18 -32 -17 -43 -15 -43 8 0 11 4 20 9 20 23 0 21 39 -4 64
-14 14 -25 32 -25 40 0 8 -7 19 -17 24 -10 6 -14 16 -10 26 9 22 22 20 46 -5
26 -28 43 -17 30 20 -13 38 -67 85 -103 91 -41 7 -52 49 -24 85 11 14 17 31
14 38 -24 45 -34 58 -40 48 -4 -6 -3 -19 3 -29 14 -26 -5 -52 -39 -52 -30 0
-46 23 -34 53 4 12 -3 17 -29 22 -23 5 -38 15 -46 31 -9 22 -16 24 -45 19 -30
-6 -34 -4 -40 19 -11 45 -32 31 -46 -29 -7 -30 -5 -33 20 -39 22 -4 30 -13 35
-36 4 -17 13 -34 21 -37 23 -8 16 -42 -11 -55 -27 -12 -55 2 -55 28 0 17 -12
18 -28 2 -10 -10 -17 -10 -32 0 -11 6 -30 12 -43 12 -36 0 -87 20 -87 34 0 7
9 21 20 31 29 26 21 36 -36 51 -58 15 -84 10 -84 -17 0 -14 -7 -19 -26 -19
-24 0 -25 3 -19 28 14 51 12 57 -20 57 -22 0 -31 -5 -33 -20 -5 -28 -12 -33
-52 -40 -19 -3 -39 -10 -46 -16 -6 -5 -18 -7 -27 -3 -9 3 -24 -3 -36 -15 -12
-12 -25 -21 -30 -21 -20 0 -35 35 -35 81 l0 49 -38 0 c-21 0 -55 -7 -75 -15
-46 -19 -43 -20 -43 16 0 18 -7 37 -14 43 -20 15 -29 57 -17 76 8 12 14 11 35
-9 28 -26 28 -26 107 15 15 8 37 15 50 17 32 5 35 25 5 38 -19 9 -29 9 -40 0
-7 -6 -37 -14 -65 -18 -45 -5 -54 -3 -67 15 -16 24 -44 19 -44 -7 -1 -15 -2
-15 -13 1 -9 11 -18 14 -28 7 -31 -20 -84 -10 -114 21 -25 26 -27 33 -15 41
22 14 120 -12 120 -32 0 -5 5 -9 10 -9 6 0 10 6 10 13 0 6 11 17 25 24 20 9
25 8 25 -3 0 -8 5 -14 10 -14 6 0 10 6 10 14 0 10 9 14 27 13 22 -2 29 3 31
22 5 35 -14 49 -35 25 -10 -11 -26 -18 -35 -16 -9 2 -28 -4 -42 -13 -24 -16
-27 -16 -51 3 -43 34 -165 27 -165 -9 0 -28 -45 -25 -75 6 -25 24 -66 28 -96
9 -18 -11 19 -34 53 -34 17 0 28 -5 28 -14 0 -8 12 -17 28 -21 68 -16 97 -71
51 -95 -17 -10 -19 -17 -14 -54 l7 -43 -65 -5 c-44 -4 -75 -13 -95 -27 -17
-11 -41 -21 -55 -21 -23 0 -25 -3 -22 -47 2 -27 -1 -57 -5 -68 -6 -15 -9 -16
-9 -4 -1 9 -11 21 -23 27 -13 6 -17 11 -10 11 17 1 15 21 -3 21 -8 0 -15 9
-15 19 0 10 -15 32 -34 49 -34 29 -48 34 -163 48 -29 3 -53 10 -53 14 0 15 40
22 93 15 88 -11 113 -23 143 -68 16 -23 33 -45 37 -48 5 -4 10 -18 10 -33 1
-14 5 -26 10 -26 20 0 -6 118 -28 126 -8 3 -17 19 -20 36 -9 40 -62 98 -90 98
-58 0 -164 60 -129 74 19 7 44 -3 44 -19 0 -13 22 -25 43 -25 7 0 3 7 -7 15
-24 18 -15 30 12 16 58 -31 100 70 49 117 -25 23 -47 29 -47 12 0 -21 -20 -9
-26 16 -4 17 -18 31 -41 40 -37 16 -52 12 -157 -42 -26 -14 -50 -23 -53 -20
-11 10 11 28 72 56 68 32 85 48 65 60 -6 4 -12 11 -11 16 0 10 -26 25 -76 46
-39 15 -43 28 -10 28 13 0 34 -11 47 -25 13 -14 32 -25 42 -25 37 0 104 -44
164 -106 34 -35 64 -64 68 -64 3 0 6 15 6 34 0 19 3 42 7 51 5 15 9 12 23 -15
16 -30 17 -31 34 -15 9 10 15 23 13 30 -3 6 -1 18 3 25 12 20 -6 47 -43 66
-50 26 -60 50 -31 78 22 22 51 20 72 -5 9 -12 23 -27 30 -35 7 -7 15 -27 19
-44 5 -29 8 -31 32 -23 14 4 60 8 102 8 51 0 83 5 100 16 13 9 36 19 50 22 20
5 29 17 41 54 11 33 13 52 6 61 -15 18 -7 15 53 -18 30 -16 57 -30 62 -30 15
0 6 26 -18 54 -14 16 -25 34 -25 40 0 18 52 85 71 91 10 3 21 14 24 24 8 27
40 32 54 10 6 -11 18 -19 26 -19 16 0 16 -1 20 -38 3 -28 28 -48 75 -62 58
-16 83 -38 75 -67 -6 -25 -5 -25 38 -19 44 7 45 6 49 -23 2 -17 2 -34 -1 -38
-11 -15 -73 -55 -89 -57 -9 -2 -18 -9 -20 -16 -3 -9 2 -11 17 -7 17 4 22 0 28
-20 3 -15 1 -33 -6 -42 -23 -32 -23 -42 0 -64 27 -25 79 -51 87 -42 3 3 -9 17
-26 32 -41 34 -41 65 0 102 26 23 32 36 32 70 1 22 6 41 11 41 6 0 30 16 54
35 24 19 50 35 57 35 13 0 16 4 18 33 1 7 -16 14 -39 17 -33 4 -41 9 -44 30
-4 29 -56 80 -82 80 -10 0 -30 11 -45 25 -26 24 -54 33 -54 17 0 -4 13 -19 29
-34 15 -15 34 -41 41 -58 7 -16 16 -30 19 -30 4 0 22 -11 39 -24 28 -20 30
-25 17 -36 -12 -10 -22 -5 -56 29 -23 23 -46 41 -51 41 -13 0 -78 70 -95 103
-14 28 -14 29 14 25 25 -3 29 1 37 35 7 27 6 44 -2 58 -25 39 -16 46 56 45
l67 -1 3 -59 3 -58 34 4 c22 2 36 -1 39 -9 3 -7 14 -13 25 -13 11 0 21 -5 23
-12 3 -7 12 -9 22 -5 16 6 17 14 12 49 -6 36 -4 45 15 59 16 12 22 28 23 58
l1 41 -77 0 c-45 0 -78 -4 -78 -10 0 -5 -11 -10 -25 -10 -14 0 -25 4 -25 9 0
5 -115 9 -255 9 -222 1 -253 -1 -241 -14 27 -27 30 -56 7 -75 -11 -9 -21 -24
-21 -33 0 -12 7 -10 36 9 20 14 41 25 46 25 15 0 41 -67 35 -91 -11 -43 -31
-63 -53 -52 -28 15 -44 5 -44 -28 0 -35 -14 -37 -35 -5 -15 23 -15 27 0 50 10
14 21 23 26 20 5 -3 9 4 9 16 0 18 -5 20 -42 18 -40 -3 -43 -1 -40 20 1 13 -5
33 -13 45 -21 30 -19 45 13 72 l27 24 -62 1 c-61 0 -63 -1 -63 -26 0 -33 -33
-30 -38 4 l-3 22 -280 0 c-241 0 -279 -2 -279 -15 0 -8 -9 -15 -20 -15 -11 0
-20 7 -20 15 0 12 -15 15 -74 15 l-73 0 2 -42 c2 -25 -3 -47 -11 -56 -12 -11
-14 -11 -15 5 -1 10 -2 25 -3 33 0 8 -19 25 -41 37 -34 18 -57 22 -157 22
-114 1 -130 -3 -107 -26 19 -19 6 -58 -20 -61 -27 -4 -41 12 -41 49 0 29 -21
44 -38 27 -7 -7 -17 -6 -32 2 -18 9 -25 8 -41 -6 -24 -22 -24 -34 0 -34 11 0
22 -4 25 -9 11 -18 -6 -41 -30 -41 -22 0 -24 -4 -24 -43 0 -43 -13 -67 -37
-67 -7 0 -13 11 -13 26 0 17 -12 38 -36 59 -35 33 -36 34 -26 79 l10 46 -103
0 -102 0 -6 -29 c-3 -15 -4 -37 -1 -48 4 -13 0 -22 -10 -26 -23 -9 -20 -34 5
-42 21 -7 21 -21 3 -69 -3 -9 -1 -16 5 -16 6 0 11 -7 11 -15 0 -17 -16 -20
-25 -5 -11 17 -24 11 -40 -20 -19 -38 -40 -40 -31 -4 5 19 1 33 -14 48 -14 16
-23 45 -29 95 -5 39 -14 78 -20 85 -6 7 -9 21 -5 30 5 13 0 16 -25 16 -24 0
-31 -4 -31 -19z m1069 -121 c9 -1 47 -16 86 -35 43 -21 75 -30 84 -26 9 6 10
10 2 15 -6 4 -11 2 -11 -4 0 -7 -12 -4 -30 7 -31 18 -40 43 -16 43 8 0 22 -7
31 -16 9 -9 17 -15 18 -13 2 2 8 16 15 32 10 23 17 27 52 27 45 0 53 -19 24
-52 -14 -14 -14 -20 -4 -33 10 -12 8 -16 -13 -24 -22 -9 -37 -29 -37 -51 0 -4
23 -22 50 -40 28 -18 50 -36 50 -41 0 -5 7 -9 15 -9 8 0 15 2 15 5 0 3 -7 22
-15 42 -17 41 -18 44 -7 41 4 -1 19 6 35 16 22 15 30 16 42 6 19 -16 19 -84 0
-104 -8 -8 -15 -24 -15 -35 0 -25 -17 -27 -46 -6 -12 8 -52 16 -90 18 -38 2
-84 11 -101 21 -36 18 -60 21 -65 6 -1 -5 -29 5 -60 24 -38 24 -64 33 -79 29
-17 -5 -20 -3 -13 8 5 8 7 22 6 31 -4 25 16 58 36 58 10 0 25 -9 35 -20 9 -11
29 -20 44 -20 32 0 32 -1 -37 37 -43 23 -61 28 -79 21 -28 -10 -42 -1 -21 13
11 8 10 9 -7 4 -26 -7 -63 2 -63 16 0 5 7 9 15 9 8 0 15 4 15 9 0 16 43 18 84
4 21 -7 46 -13 55 -13z m-671 -21 c26 -45 19 -68 -22 -70 -17 -1 -17 -2 -3 -6
9 -2 17 -13 17 -24 0 -10 5 -19 11 -19 16 0 6 -45 -11 -45 -8 -1 -28 -7 -44
-15 -26 -13 -30 -13 -45 7 -13 15 -25 19 -45 16 -26 -5 -28 -4 -21 18 4 13 18
32 31 42 13 10 24 27 24 37 0 10 11 27 25 38 14 11 25 29 25 41 0 36 33 24 58
-20z m1487 -75 c57 -58 65 -80 41 -123 -8 -14 -12 -40 -9 -61 3 -23 1 -40 -7
-45 -17 -11 -90 25 -90 45 0 23 -30 59 -36 43 -14 -33 -64 5 -64 49 0 13 52 1
63 -15 5 -7 6 -1 3 15 -4 18 0 32 11 44 11 11 16 29 14 50 -2 31 4 54 15 54 3
0 29 -25 59 -56z m-1582 -199 c-20 -25 -41 -45 -46 -45 -4 0 -6 -4 -3 -8 3 -5
-19 -35 -48 -67 -69 -74 -96 -156 -96 -287 0 -49 -4 -88 -9 -88 -21 0 -39 32
-46 79 -5 41 -11 50 -31 55 -36 9 -44 54 -14 78 13 10 29 17 37 14 7 -3 13 1
13 9 0 8 -9 15 -19 15 -21 0 -36 40 -26 71 6 18 22 24 53 20 8 -1 25 5 38 14
14 9 33 14 43 10 12 -4 29 8 57 41 48 57 123 134 130 134 3 0 -12 -20 -33 -45z
m1730 -641 c9 -3 13 -13 10 -25 -3 -11 -11 -18 -18 -15 -16 6 -35 -13 -35 -36
0 -22 14 -23 51 -1 15 9 31 14 35 11 8 -9 -48 -78 -62 -78 -6 0 -18 -10 -27
-22 -21 -33 -31 -16 -17 28 10 29 10 39 1 42 -6 2 -18 10 -25 18 -19 19 -32
18 -83 -7 -53 -26 -77 -22 -81 12 -5 39 20 54 56 35 26 -13 31 -13 52 1 12 9
25 12 29 6 14 -20 59 -13 75 12 18 27 18 27 39 19z m533 -55 c20 -19 28 -20
61 -12 48 12 93 -1 93 -28 0 -31 -49 -49 -128 -46 -75 2 -96 -5 -69 -26 15
-11 21 -28 18 -53 0 -6 -14 -17 -29 -23 -15 -6 -40 -25 -56 -41 -15 -17 -34
-30 -42 -30 -16 0 -18 -9 -4 -30 12 -19 -6 -40 -36 -40 -14 0 -30 10 -40 25
-12 18 -20 22 -32 15 -10 -5 -25 -11 -34 -14 -15 -4 -16 -10 -8 -31 11 -29 6
-45 -14 -45 -34 0 -54 65 -27 86 12 10 10 14 -16 27 -39 21 -53 7 -53 -50 0
-48 -19 -65 -51 -45 -27 17 -50 15 -43 -3 8 -20 -11 -41 -43 -50 -21 -5 -31
-1 -44 16 -24 32 -54 34 -73 4 -9 -14 -23 -25 -31 -25 -8 0 -15 -4 -15 -9 0
-5 -15 -9 -32 -9 -18 1 -59 -1 -90 -5 -56 -5 -58 -5 -58 18 0 18 4 22 20 18
11 -3 23 -10 26 -15 6 -10 34 9 34 24 0 5 -10 12 -22 17 -17 6 -21 16 -21 47
0 22 4 48 10 59 6 11 11 37 11 59 1 30 -3 39 -18 43 -31 8 -24 28 10 31 50 4
70 -13 70 -59 0 -22 -5 -50 -11 -61 -8 -15 -8 -27 2 -44 7 -13 16 -24 19 -24
11 0 39 63 33 73 -3 4 4 11 16 14 15 4 21 13 21 34 0 29 1 29 55 28 47 -1 59
-6 78 -28 21 -26 27 -27 90 -23 78 5 90 24 27 43 -22 7 -38 14 -35 17 10 10
65 11 65 1 0 -11 101 -59 125 -59 8 0 24 -9 35 -20 18 -18 40 -27 40 -16 0 2
-7 17 -15 32 -8 16 -15 39 -15 51 0 24 -47 53 -85 53 -12 0 -45 7 -74 16 -44
13 -52 18 -49 37 4 27 39 34 58 12 20 -24 37 -18 61 25 21 37 49 54 49 30 0
-5 6 -10 14 -10 8 0 28 -11 44 -25 37 -31 51 -31 77 0 15 19 86 55 124 64 3 1
15 -9 27 -20z m277 -93 l-2 -28 54 7 c30 3 60 3 67 -1 7 -5 31 -9 53 -10 22
-1 41 -7 43 -13 2 -6 9 -8 14 -5 6 4 8 2 4 -4 -12 -21 14 -23 73 -6 56 15 61
15 90 -2 55 -32 53 -76 -2 -67 -23 3 -37 0 -46 -11 -17 -20 -55 -21 -71 -1
-17 21 -37 19 -50 -4 -14 -28 -14 -28 31 -51 31 -16 50 -20 83 -15 46 7 74
-11 62 -40 -3 -10 3 -17 20 -21 28 -7 27 -27 -2 -33 -10 -2 -22 -8 -25 -13 -4
-6 -21 -3 -44 6 -41 17 -121 23 -95 6 12 -7 11 -12 -5 -30 -15 -17 -26 -19
-66 -14 l-48 7 6 -68 c5 -57 3 -70 -11 -80 -9 -7 -26 -11 -36 -8 -25 7 -27
-12 -3 -21 15 -6 15 -9 3 -16 -12 -7 -11 -14 5 -44 27 -49 43 -53 51 -11 3 20
12 35 20 35 8 0 20 16 28 35 12 27 21 35 41 35 14 0 34 5 45 12 22 14 39 3 22
-14 -8 -8 -8 -15 -1 -24 18 -22 -17 -48 -63 -47 -33 2 -38 -1 -33 -16 3 -9 -2
-26 -10 -37 -22 -29 -18 -36 14 -20 21 11 31 12 40 3 25 -25 12 -43 -41 -55
-29 -7 -63 -15 -76 -19 -14 -3 -30 1 -42 12 -19 17 -21 17 -55 -1 -29 -16 -39
-16 -68 -6 -18 7 -39 12 -46 12 -7 0 -19 7 -28 15 -23 23 -47 14 -51 -18 -2
-16 -10 -31 -18 -34 -11 -4 -12 -17 -8 -59 10 -84 -2 -93 -132 -90 -64 1 -109
7 -116 14 -9 9 -9 12 0 12 7 0 12 7 12 16 0 13 8 15 35 12 27 -3 36 0 41 14 6
19 46 34 62 24 11 -6 24 33 16 46 -3 4 -13 8 -23 8 -28 0 -41 19 -30 48 8 20
6 29 -11 47 -11 12 -20 31 -20 43 0 17 -8 23 -37 28 -21 3 -51 16 -68 28 -16
13 -38 26 -48 29 -28 11 -16 39 23 52 35 12 36 13 39 83 1 20 6 23 40 20 22
-1 47 4 55 11 14 12 19 11 36 -4 36 -33 21 -65 -31 -65 -28 0 -23 -23 10 -48
32 -23 41 -16 41 34 0 19 5 24 24 24 18 0 27 -8 35 -31 6 -18 11 -39 11 -48 0
-9 11 -24 25 -33 18 -14 30 -16 49 -8 34 12 34 40 2 40 -38 0 -43 21 -10 46
l28 23 11 -26 c10 -23 17 -27 58 -28 26 0 47 2 47 6 0 11 58 16 74 7 14 -8 15
-2 9 37 -6 45 -5 47 39 88 25 23 48 53 51 67 3 14 9 37 12 51 5 19 2 28 -10
33 -12 4 -34 -10 -74 -49 -31 -30 -61 -55 -67 -55 -19 0 -23 -47 -5 -65 12
-12 13 -19 5 -33 -17 -27 -48 -22 -52 9 -2 18 -13 31 -38 42 -18 9 -34 21 -34
26 0 20 33 41 66 41 23 0 34 5 34 14 0 8 3 21 6 30 5 12 -1 16 -24 16 -33 0
-41 7 -59 58 -7 22 -8 44 -2 65 5 18 9 34 9 36 0 2 -13 1 -29 -2 -25 -5 -30
-3 -34 19 -6 32 32 55 88 51 37 -2 40 -4 38 -31z m-1288 -367 c4 -5 19 -9 34
-9 31 0 51 -16 51 -42 0 -19 34 -25 45 -8 3 6 26 10 50 10 46 0 55 -9 55 -60
0 -41 -13 -44 -55 -10 -44 35 -43 35 -67 14 -14 -14 -20 -14 -33 -4 -8 7 -12
16 -9 21 3 5 -11 9 -30 9 -26 0 -36 5 -41 20 -8 24 -15 25 -41 5 -25 -19 -49
-19 -79 1 -20 13 -23 20 -14 36 6 10 24 27 40 37 27 17 33 17 60 4 16 -8 31
-18 34 -24z m111 -161 c8 -27 16 -34 46 -39 20 -3 44 -12 53 -19 14 -11 21
-11 46 4 24 14 33 15 44 6 8 -7 15 -18 15 -24 -1 -27 -20 -36 -83 -41 -54 -4
-73 -2 -107 16 -58 30 -69 57 -45 112 11 26 21 21 31 -15z m1665 -84 c12 -11
22 -13 36 -6 10 6 27 6 40 1 25 -9 57 -64 49 -85 -3 -7 -2 -13 2 -13 18 3 32
-2 32 -11 0 -5 -16 -10 -35 -10 -24 0 -37 -6 -45 -20 -6 -11 -17 -20 -25 -20
-7 0 -17 9 -20 20 -3 11 -11 20 -16 20 -5 0 -9 5 -9 11 0 7 10 9 24 5 35 -9
40 8 13 47 -23 34 -24 34 -57 21 -42 -18 -63 -3 -49 34 10 26 35 29 60 6z
m-887 -60 c9 -8 16 -21 16 -29 0 -7 7 -15 15 -19 24 -9 18 -53 -10 -72 -13 -8
-29 -13 -35 -9 -5 3 -10 0 -10 -8 0 -22 -38 -28 -56 -9 -15 14 -15 17 1 28 10
8 22 15 28 17 7 2 7 10 -1 22 -10 19 -30 23 -112 25 -36 1 -80 20 -80 35 0 19
54 29 80 15 11 -6 26 -8 32 -4 38 24 112 28 132 8z m150 -273 c6 -5 28 -14 49
-21 27 -8 37 -17 35 -28 -4 -22 -54 -27 -121 -12 -48 10 -53 9 -69 -10 -9 -11
-27 -20 -41 -20 -14 0 -37 -6 -53 -14 -28 -15 -55 -9 -70 16 -10 16 36 50 59
44 13 -3 32 5 53 22 26 21 45 27 90 29 32 2 62 -1 68 -6z m160 -138 c-2 -23
-10 -43 -24 -53 -13 -10 -17 -19 -11 -25 6 -6 7 -16 1 -25 -7 -12 -12 -12 -22
-2 -19 19 -55 15 -61 -8 -3 -11 -13 -23 -24 -26 -55 -18 -73 -28 -73 -40 0 -8
5 -14 10 -14 6 0 10 -9 10 -20 0 -15 -7 -20 -25 -20 -14 0 -28 7 -31 15 -4 8
-10 12 -15 9 -5 -3 -9 -1 -9 5 0 5 -13 18 -29 27 -16 10 -34 27 -39 39 -9 19
-6 21 21 23 17 2 39 9 48 18 12 11 26 13 55 7 48 -10 86 -5 81 10 -2 7 -18 13
-35 15 -36 4 -40 17 -16 50 10 15 20 20 27 14 7 -4 31 -14 53 -21 43 -14 66
-9 63 12 -4 30 2 46 19 50 26 6 30 1 26 -40z"/>
<path d="M3435 3940 c0 -52 -1 -55 -25 -55 -32 -1 -62 13 -78 37 -16 22 -58
24 -66 2 -11 -30 -6 -52 14 -57 16 -4 20 -14 20 -51 0 -34 4 -46 15 -46 8 0
15 9 15 19 0 11 12 25 28 34 41 20 72 -2 72 -50 0 -25 5 -36 18 -40 10 -2 26
-18 36 -34 10 -16 22 -27 27 -24 16 11 10 43 -12 59 -12 8 -30 28 -40 45 -15
25 -16 31 -4 41 10 8 11 19 4 43 -5 18 -9 33 -9 34 0 2 10 3 23 3 12 0 27 4
32 8 20 14 56 72 51 81 -3 5 -32 8 -64 8 l-57 -2 0 -55z"/>
<path d="M383 2681 c-25 -21 -29 -37 -12 -43 6 -2 13 -25 15 -51 5 -47 5 -48
-32 -63 -44 -19 -80 -12 -87 17 -5 17 -11 20 -36 14 -17 -3 -36 -3 -43 2 -7 4
-34 8 -60 8 -40 0 -48 -3 -48 -18 0 -15 5 -17 28 -12 16 3 48 1 73 -4 66 -15
93 -63 42 -74 -48 -11 -54 -20 -47 -66 4 -24 17 -55 29 -68 18 -22 24 -24 43
-14 19 10 22 18 17 44 -8 40 18 103 44 112 23 7 101 4 101 -4 -1 -17 -19 -31
-32 -26 -11 4 -18 0 -22 -13 -4 -10 -17 -25 -30 -32 -26 -14 -42 -60 -20 -60
19 0 56 -52 51 -71 -3 -11 16 -43 47 -82 31 -40 71 -108 100 -175 27 -61 53
-109 57 -107 11 7 5 77 -8 101 -7 12 -17 43 -23 70 -13 58 -25 74 -55 74 -27
0 -75 82 -78 134 -2 20 -12 45 -25 59 -25 26 -29 65 -8 73 15 6 70 -19 99 -45
18 -15 20 -14 41 12 24 30 47 35 66 12 7 -8 24 -15 37 -15 21 0 24 4 19 23 -3
12 -6 28 -6 34 0 7 -19 25 -42 39 -39 25 -56 31 -85 33 -15 1 -8 51 13 94 l13
28 -45 -7 c-58 -8 -77 6 -68 52 7 39 7 40 -23 15z"/>
<path d="M0 1222 c0 -4 23 -16 51 -26 74 -27 184 -86 289 -155 51 -34 99 -61
107 -61 8 0 11 -4 8 -10 -3 -5 -2 -10 4 -10 28 0 11 29 -38 65 -124 89 -208
135 -329 179 -78 28 -92 31 -92 18z"/>
<path d="M910 733 c0 -90 -11 -208 -31 -346 -11 -77 -11 -78 19 -140 17 -34
45 -78 62 -97 19 -21 27 -26 21 -13 -8 15 -8 22 0 25 6 2 -1 20 -16 41 -14 21
-20 35 -14 31 7 -4 6 3 -2 17 -25 44 -37 132 -32 224 8 155 8 345 1 345 -5 0
-8 -39 -8 -87z"/>
<path d="M3238 523 c-10 -2 -18 -9 -18 -14 0 -5 -5 -9 -12 -9 -11 0 -121 -80
-143 -104 -5 -6 -30 -27 -55 -46 -54 -42 -62 -52 -77 -110 l-12 -45 6 48 c6
52 -12 67 -23 20 -4 -16 -10 -30 -14 -33 -4 -3 -19 -50 -32 -105 l-25 -100
-224 1 c-178 1 -236 4 -282 18 -41 12 -96 17 -196 17 -131 0 -253 9 -313 23
-36 8 -35 -5 3 -49 l31 -35 832 0 831 1 -30 25 c-35 28 -84 44 -138 44 -52 0
-38 17 21 25 89 12 88 11 107 67 9 29 25 70 35 91 10 20 14 37 10 37 -5 0 -10
-6 -13 -12 -3 -10 -7 -10 -19 0 -13 10 -22 10 -52 -5 -20 -9 -36 -23 -36 -32
0 -11 4 -10 15 5 11 13 14 14 13 4 -2 -8 3 -14 10 -13 17 4 15 -22 -3 -37 -8
-7 -15 -20 -15 -28 0 -12 -3 -13 -12 -4 -14 14 -32 16 -24 3 3 -5 -1 -12 -10
-15 -10 -4 -13 -2 -9 7 4 6 -2 3 -12 -9 -18 -20 -55 -44 -67 -44 -3 0 -3 15 0
33 8 39 118 156 179 188 25 13 46 33 52 50 14 36 7 43 -18 18 -49 -49 -147 -4
-135 63 3 18 3 27 0 20 -3 -6 -10 -10 -15 -6 -5 3 -9 0 -9 -5 0 -6 -18 -11
-40 -11 -29 0 -42 5 -50 20 -9 18 -8 20 16 20 22 0 25 2 14 15 -7 8 -15 14
-19 14 -3 -1 -14 -3 -23 -6z m111 -134 c36 -13 39 -24 11 -39 -11 -6 -18 -15
-15 -19 2 -5 -11 -21 -31 -36 -29 -22 -42 -26 -67 -20 -79 17 -84 17 -90 -5
-7 -25 -24 -26 -22 -1 1 21 69 77 132 110 46 24 42 24 82 10z"/>
<path d="M1600 151 c-21 -6 -22 -8 -7 -14 23 -9 22 -24 -3 -37 -17 -9 -20 -8
-17 12 2 26 4 26 -98 3 -121 -27 -164 -34 -188 -29 -32 8 -37 7 -83 -10 -23
-8 -65 -18 -95 -21 -92 -10 -98 -13 -92 -35 5 -19 14 -20 214 -20 l208 0 37
45 c42 49 61 60 79 45 7 -6 19 -8 28 -4 8 3 25 0 37 -6 15 -8 20 -8 16 -1 -11
18 3 13 26 -9 12 -11 28 -20 35 -20 8 0 11 -5 8 -10 -3 -6 1 -10 10 -10 9 0
14 -4 11 -9 -4 -5 3 -7 14 -4 11 3 20 9 20 13 0 13 -41 60 -52 60 -6 0 -6 -6
2 -15 16 -19 3 -20 -15 -1 -8 7 -11 16 -8 20 4 3 -3 6 -15 6 -12 0 -22 4 -22
9 0 5 -3 16 -6 24 -4 11 2 17 18 20 18 3 17 4 -7 5 -16 0 -41 -3 -55 -7z"/>
</g>
</svg>
