<svg version="1" xmlns="http://www.w3.org/2000/svg" width="533.333" height="533.333" viewBox="0 0 400.000000 400.000000"><path class="path" stroke="#000000" stroke-miterlimit="10" d="M38 1.9c0 1-.7 3.1-1.4 4.7-1.7 3.1-1.1 5.1.9 3.4 1.6-1.3 2.5-.2 5.5 6.4 2.1 4.8 2.1 5 .4 6.3-1.5 1.1-3 1.4-7.1 1.3-.5 0-.8-.8-.9-1.8-.2-3.7-.5-4.2-2.2-4.2-1 0-2.9 1.1-4.2 2.5-2.8 3-4.1 3.1-6.5.5-1-1.1-3-2-4.5-2-1.6 0-2.8-.5-2.7-1.3.2-6-.1-6.5-4.9-6.9-2.8-.2-4.9.1-5.6.9-.6.7-1.9 1.3-2.9 1.3-1.1 0-1.9.5-1.9 1.1 0 2.8 8.3 7.3 13.1 7 2.9-.1 3.8.2 4.2 1.8.2 1.1-.2 2.9-1 4.1-1.4 2-1.4 2.4.1 3.8 1.4 1.4 1.7 1.3 3-2 .9-2 2.2-3.8 3.1-4.2 2-.7 6.8 4.2 6 6.2-.3.7-.5 2.2-.5 3.3 0 1.3-1.2 2.5-3.4 3.4-1.8.8-4.1 2.6-5 4-2.8 4.3-8.7 2.6-7-2 .4-.8 1.2-1.5 2-1.5 2.1 0 1.7-1.3-1-3.2-2.6-1.9-6.7-1.3-11.2 1.7-2.1 1.3-2.2 1.8-1.2 4.1.9 1.9.9 3 0 4.4-.9 1.5-.7 2.1 1.1 3.3 2 1.3 2.6 1.3 4.2.1 2.4-1.8 6.4-1.8 7.1-.1.3.8 1.6 1.2 3.3.9 3.2-.4 4.4.8 3.5 3.3-.5 1.2-1.4 1.5-3.3 1.2-1.4-.3-4.7.2-7.3 1.1C5.1 56.4 3.5 58 6.5 58c.8 0 1.5.7 1.5 1.5 0 .9.7 2.7 1.6 4 1.1 1.6 1.5 3.8 1.2 6.2-.5 4.2.8 9.3 2.4 9.3.6 0 2.6-1 4.6-2.2 4.5-2.8 6.7-1.6 6.7 3.7 0 2.4.6 4 1.5 4.5.8.4 2.5 1.2 3.8 1.9 1.8.9 2.8.8 5.3-.4 3.4-1.8 6.9-1.2 6.9 1.2 0 .8-.9 2.8-2.1 4.4-1.1 1.6-1.8 3.3-1.4 3.8.3.5-.2 2.8-1.1 5.1-1.9 4.7-1.6 5.3 2 4.4 1.7-.4 2.9-1.7 3.8-4 .8-2.2 1.9-3.4 3.1-3.4 1.8 0 1.8.1 0 2.7-2.3 3.4-2 7.5.5 6.6.9-.4 3.2-2.3 5.2-4.3 3.2-3.4 4.1-3.8 10.4-4.3 7-.7 9.1-.3 8.1 1.4-.4.5-3.5.9-7.1.9-3.6 0-7.4.5-8.5 1-2.7 1.5-4.9 6.3-4.9 11 0 2.2-.3 4-.6 4-1.2 0-3.3-3.4-3.4-5.3 0-3.1-1.9-1.8-2.6 1.9-.8 4.6-4.7 7.3-7.6 5.5-1.1-.7-2.2-1-2.5-.7-.7.7-4.3-3.8-4.3-5.3 0-.5 1.2-2.1 2.6-3.4 3.1-2.9 1.9-4.2-2-2.1-1.6.7-3.8 1.4-5 1.4-3.4 0-3.7.9-1.5 4.3 2.3 3.8 2.4 5.7.5 5.7-1.8 0-9.6 5.1-9.6 6.2 0 1.9-3.8.6-4.8-1.7-1.8-4-1.4-6.9 1.3-9.5 1.6-1.5 2.2-2.7 1.6-3.3-1.2-1.2-8.7 4.6-9.6 7.3-.4 1.1-1.1 2-1.6 2s-.9.4-.9 1c0 .5.7 1 1.5 1 1.7 0 5.5 5.6 5.5 8.1 0 .9-.9 2.4-2 3.4-2.1 1.9-2.4 5.6-.5 6.2 1.7.5 6.1-4 6.9-7 .5-2.3 1-2.7 2.9-2.1 2.9.8 5.5 3.2 6.2 5.5 1.7 5.3 4.4-.7 4-8.9-.3-5.4-.1-6.4 1.8-7.7 3-2.1 3.3-2 7.3 2 3.9 4 6.4 4.4 8.2 1.5.7-1.1 2.3-2 3.7-2 1.4 0 3 .9 3.7 2 .7 1.1 2 2 2.9 2 2.9 0 8.7 8 7.3 10.2-.4.6-.3.8.4.5 1.3-.9 6.2 4.9 6.2 7.4 0 1.3-.7 1.9-2.2 1.9-1.7 0-1.9.3-1 1.2.7.7 1.2 2 1.2 2.9 0 2.9 1.9 3.2 3.2.5 1.7-3.8 4.3-3.2 7.9 1.9 1.8 2.5 3.6 4.5 3.9 4.5.4 0 2.2 3 4 6.7 2.3 4.7 3.5 8.9 4.1 14.2.4 4.2.8 7.7.8 7.8.1.2 2.1.3 4.5.3 9.5 0 39.8 8 44.7 11.8 1.3 1.1 4.2 2.5 6.4 3.2 4.3 1.4 10 5.1 12.8 8.4 3.2 3.9 9.4 17 11.5 24.5 1.2 4 2.3 7.5 2.5 7.7.2.2 2-1.8 4-4.5 4.6-5.9 4.7-9.2.7-13.8-3.8-4.3-3.8-6.5.2-9.5 4.1-3.1 11.2-6.8 13.2-6.8 2.2 0 2.9-1.7 1.3-3.2-.8-.7-1.2-2-1-2.9.3-1.1-.5-2.4-1.9-3.3-2.2-1.5-2.7-1.4-6.3.4-4.1 2.1-6.8 1.7-3.8-.5 1.6-1.2 1.4-1.4-2.3-2-3.4-.6-4.1-1.1-3.9-2.9.4-3.2.5-3.2 1.8-1.4 3.2 4.1 7.4 1.5 4.3-2.7-1.2-1.6-1.6-1.7-3-.6-2.3 1.9-3.3.5-1.3-1.7.9-1 1.3-2.2.9-2.8-.8-.8-3.2-8.3-3.2-9.7 0-.4 1.4-1.3 3-2.2 1.7-.9 3-2.2 3-2.9 0-.8.7-1.7 1.6-2 3.1-1.2 4.4-.6 4.4 1.9s-1.9 3.6-2.1 1.2c0-.6-.5 0-1.1 1.6-.8 2.1-.6 3.4.9 5.8 1.7 3 2.2 3.2 8.8 3.5 7.5.4 9.5 1.7 9.5 6 0 2.7-2.5 5.1-3.5 3.4-.4-.7-2.1-1-3.9-.7-2.1.3-4-.2-5.8-1.5-2.8-1.9-2.8-1.9-2.8.1 0 3.8 1.9 7.1 4 7.1 3.8 0 9.5 3.8 14.5 9.7 2.7 3.2 8.9 9.9 13.8 14.9l8.8 9.1 4.3-.4c5.1-.6 6.3.6 4 4.2-1.1 1.7-2.5 2.5-4.5 2.5-3.9 0-4.4 1.5-1.3 3.9 1.8 1.4 4.1 2.1 7 2.1h4.4l-.6-3.3c-.3-1.7-.7-4-.9-4.9-.1-1 .3-3.4 1-5.5 1.2-3.6 1.6-3.8 4.9-3.5 2.6.3 3.6 0 3.6-1.1 0-1.6-2.6-4.1-5.2-5-2.5-.9-2.3-5.9.2-8.2 2.8-2.6 2.5-5.3-.7-6.6-2.2-.8-3.4-.7-5.5.5-1.4.9-3.6 1.6-4.7 1.6-1.2 0-2.1.5-2.1 1.1 0 .6-.6.9-1.4.6-.8-.3-1.7-.1-2 .6-.3.7-.5-.7-.3-3.1l.3-4.2h-5.1c-2.8 0-5.6.5-6.1 1-1.5 1.5-4.4.2-4.4-1.9 0-2.7 2-4.2 4.2-3 1 .5 2.3.7 2.8.4.6-.3 1 0 1 .7s1 .1 2.3-1.4c2.2-2.6 6.5-3.9 12.9-3.8 2.9 0 4.3-2.5 3.9-7.2-.3-3.2 2.7-5.2 6.9-4.6 2.4.4 2.9 0 3.4-2.4.7-3.6 4.3-3.8 8.4-.3 3.8 3.2 6.7 3.2 9.6-.1 1.8-2.2 2.7-2.5 5.4-1.9 3.7.8 5.9 3.7 3.9 5.3-1.9 1.6-9.7 4.5-10.4 3.9-.3-.4-1.8 0-3.4.9-2.6 1.3-3.2 1.3-6.9-.6-4.4-2.2-6.4-1.9-5.5 1 .4 1.2-.1 1.9-1.7 2.4l-2.3.7 2.2.9c2.3 1 6.3.3 6.3-1.1 0-.5.5-.9 1-.9 1.6 0 1.1 2.7-.6 3.4-1.5.6-1.5.8.1 2.6 1 1.1 2.5 2 3.3 2 1 0 1.2.6.7 2.2-.4 1.3-.9 3.8-1.2 5.6-.4 2.4-1.3 3.6-3.9 4.8-4.2 2-4.8 2.8-3.9 6.1l.6 2.6 3.3-3.2c1.7-1.7 4.2-3.1 5.4-3.1 1.2 0 2.7-.9 3.4-2 1.7-2.7 3.7-2.5 7.8 1 3.9 3.4 5.6 3.7 8.1 1.4 2-1.8 5.9-1.1 5.9 1.1 0 1.7-7.2 5.5-11.4 6-1.6.3-3.4.9-4 1.5-1.5 1.5-3.5 1.2-6.4-1l-2.6-2.1-1.3 2.6c-1.6 2.9-1 4.5 1.6 4.5.9 0 2.1.4 2.7.9.5.5 2.2 1.1 3.8 1.3 1.6.2 3.4 1.1 4 2.1.9 1.5.7 2.2-1.2 3.7-1.8 1.5-2.9 1.7-5.3 1-5.1-1.5-11.2-1.3-14.3.3-2.7 1.5-2.8 1.7-1 2.3 2.5 1 3.3 2.2 2.6 4.6-.5 1.9-.9 2-5.7.4-1.1-.4-.2.3 2 1.5 3.4 1.9 6 2.4 16.6 2.8 14.5.7 14.8.9 19.1 9.4 3.4 6.7 9.6 10.3 15.8 9.3 3.6-.6 4.1-.3 6.5 2.8 1.4 1.9 3.8 3.9 5.3 4.4 3.1 1.1 18.7 14.4 19.6 16.7.3.9 1.8 1.5 3.5 1.5 3.2 0 4.3 1.6 3 4.2-.6 1.2.1 3.1 2.7 7 2 2.9 4.7 7.4 6 10 1.5 2.9 3.6 5.4 5.5 6.4 2.5 1.2 3 2 2.4 3.7-1.6 5.3-1.6 6.7.5 10.6 1.7 3.4 1.9 4.6.9 5.7-.6.8-1 1.5-.8 1.7.2.1 2.7 1.3 5.4 2.7 4.4 2.2 5.2 3.1 6.5 7.2 2.1 6.6 4.3 8.3 12.4 9.6 3.7.6 7 1.3 7.2 1.5.2.1 1.1 3.2 2 6.6 1.4 5.7 2.3 7.1 8.5 13.2l6.9 6.8v-55.1c-.1-52.9-.1-55-1.9-53.4-.9.9-2.3 1.6-2.9 1.6-1.4 0-3.2 3.2-3.2 5.8 0 1 1.1 2.5 2.5 3.2 3 1.6 2.9 4.5 0 4.5-1.4 0-2.1-.8-2.3-2.8-.3-2.2-.8-2.7-3.1-2.7-3.6 0-5.1-1.7-5.1-5.7 0-3.1.1-3.2 3.1-2.6l3.1.6-.7-4.7c-.7-4.3-.6-4.7 1.1-4.6 3.7.4 6.4 0 6.4-1 0-.6-.7-1-1.5-1-1.8 0-3.8-3.7-3.1-5.6.3-.8 1.9-1.4 3.5-1.4 2.3 0 3.1.5 3.4 2.2.3 1.5.5 1.1.6-1.2.1-2.9-.4-3.8-2.9-5.2-1.7-.9-3-2.4-3-3.1 0-2 2.9-3 4.6-1.6 1.2 1 1.4-.1 1.4-6.5 0-7.4-.1-7.6-2.5-7.6-1.3 0-2.8.7-3.3 1.6-.7 1.3-1.3 1.4-2.9.5-2.8-1.4-3.3-.6-3.3 5.1 0 4.5-.2 4.8-2.6 4.8-4.1 0-9.2 2.9-11.5 6.6-1.9 3.2-2.5 3.5-6.5 3.3-3.5-.2-4.8.2-6.9 2.3-1.5 1.5-2.2 2.9-1.6 3.2.6.4.4 2.4-.6 5.4-2.4 7.1-2.7 7.6-6.6 9.5-2.1.9-3.7 2.2-3.7 2.7 0 .6-.9 1-1.9 1-3.9 0-3.5-6.1.7-9.7 1.5-1.2 2.3-2.6 1.9-3-.5-.4-1.2-.1-1.7.7-.5.9-.7-.3-.3-3.1.3-2.4 1.3-5 2.1-5.7 1.4-1 1.4-1.6.4-3.2-.6-1.1-1.2-2.9-1.2-4 0-1.4-.7-2-2.3-2-3.2 0-4.7-1.8-4.7-5.7 0-2.2-.5-3.3-1.5-3.3-.8 0-3.8-2.3-6.7-5.1-5.6-5.3-17.6-13.9-19.5-13.9-.7 0-2-1.3-2.9-2.9-1-1.7-2.9-3.1-4.5-3.5-1.5-.3-3-1.4-3.4-2.5-.8-2.7 1.5-6.1 4.2-6.1 2.5 0 5.6 4 4.8 6.1-.4 1.1.6 1.4 4.7 1.2 10.5-.3 9.8 0 9.8-3.7 0-5.3 4.3-7.4 12.5-6.1 5.6.9 7.5 9.8 2.9 14-2.7 2.5-6.4 3-6.4.8 0-1.7-1.1-1.6-3.4 0-1.6 1.2-1.5 1.5 1.5 4.5 2.5 2.5 4.2 3.2 7.1 3.2 4 0 4.8 1.2 2.4 3.9-1.3 1.4-.9 2.3 3.1 7.1l4.6 5.5-.8-3.5c-.4-1.9-1.1-3.9-1.6-4.5-1.6-1.6-1-5.1 1.2-7.1 2.1-1.9 2.1-1.8 4 .5 1 1.3 1.9 3.1 1.9 4 0 .9.6 2.5 1.3 3.6 2.2 3.2 2.6 6.4 1.2 9.2-1.2 2.4-1.2 3 .6 5.5 2.5 3.4 3.6 3.5 5.1.3.6-1.3 1.9-2.7 3-3 3.2-1.1 1.9-2.3-2.2-2.1-3.3.2-4-.1-4-1.6 0-1 .7-3 1.7-4.4 1-1.5 1.6-4.3 1.5-6.9-.2-3.7.2-4.6 2.5-6.3 5.5-3.7 6.6-3.6 9.6 1 1.3 2.1 1.5 4 1 8.9-.5 5-.4 6.1.8 5.7.8-.3 1.7-2.7 2.2-5.8.4-3 1.4-6.2 2.3-7.1 1.6-1.8 1.1-4.4-.6-3.4-1.5.9-6-2.6-6-4.6 0-2.8 3-3.6 4.7-1.3.7 1 2 2.7 2.8 3.7.8.9 1.5 2.2 1.5 2.7 0 .6 1 1 2.2 1 1.2 0 1.8.3 1.5.7-.8.7 2.1 4.3 3.5 4.3 1.6 0 .8-3.9-1.2-5.3-2.5-1.8-1.7-4.7 1.4-4.7 1.1 0 3.4.7 5 1.5 1.5.8 3 1.5 3.2 1.5.9 0 .3-3-.6-3.1-2-.3-2.5-.5-4.7-1.9-2.3-1.5-3.2-6-1.3-6 1.6 0 1.2-1.8-1-4-1.5-1.5-1.9-2.8-1.4-4.8.4-1.5.8-4.1.9-5.7.1-1.7.5-4.2.9-5.7.5-1.5.3-3.5-.4-4.8-1.1-2-.7-2.7 2.8-6.4 4.4-4.5 6.5-10.6 3.8-10.6-2.6 0-3.2-4.8-.7-6.9 2.1-1.8 2-1.8-1.9-3-3.5-1-4-1.5-4-4.3 0-3 .1-3.1 4-2.5l4 .5v-9.6c0-8.9-.1-9.5-1.5-7.5-.9 1.2-1.7 4.1-2 6.4-.4 4.7-1.8 6.1-4.9 5-2.9-1.1-3-2.6-.5-5 2.5-2.3 2.5-2.2-1.3-3.9-3.8-1.6-4-6.2-.3-6.2 2 0 2.5-.5 2.5-2.4 0-3.1 2.5-4 5.6-2 2.3 1.6 2.4 1.5 2.4-.6 0-1.2-1.5-3.5-3.5-5.3-1.9-1.7-3.5-3.7-3.5-4.5 0-1.1.9-1.3 3.5-.9l3.5.6v-4c0-3.3-.3-3.9-2.2-3.9-1.2 0-2.9-.7-3.9-1.6-2.4-2.2-8.6-.9-9.5 2-.4 1.1-1.4 2.7-2.3 3.3-1.5 1.2-1.4 1.4.2 2.7.9.7 1.7 2 1.7 2.9 0 .9 1.2 2.2 2.8 2.9 3.4 1.6 3.9 4.7 1.2 7.5-1.1 1.2-2 2.7-2 3.3 0 .5-.4 1-1 1-.5 0-1-.6-1-1.3 0-.8-.2-.9-.8-.1-.4.7-1.6 1.3-2.7 1.5-2.8.6-3 3.4-.5 5.9 2.3 2.3 2.3 4.9 0 6-.8.4-2.5 1.2-3.7 1.8-3.2 1.7-4.3 1.5-4.3-.8 0-1.1.4-2 .9-2 2.3 0 2.1-3.9-.4-6.4-1.4-1.4-2.5-3.2-2.5-4 0-.8-.7-1.9-1.7-2.4-1-.6-1.4-1.6-1-2.6.9-2.2 2.2-2 4.6.5 2.6 2.8 4.3 1.7 3-2-1.3-3.8-6.7-8.5-10.3-9.1-4.1-.7-5.2-4.9-2.4-8.5 1.1-1.4 1.7-3.1 1.4-3.8-2.4-4.5-3.4-5.8-4-4.8-.4.6-.3 1.9.3 2.9 1.4 2.6-.5 5.2-3.9 5.2-3 0-4.6-2.3-3.4-5.3.4-1.2-.3-1.7-2.9-2.2-2.3-.5-3.8-1.5-4.6-3.1-.9-2.2-1.6-2.4-4.5-1.9-3 .6-3.4.4-4-1.9-1.1-4.5-3.2-3.1-4.6 2.9-.7 3-.5 3.3 2 3.9 2.2.4 3 1.3 3.5 3.6.4 1.7 1.3 3.4 2.1 3.7 2.3.8 1.6 4.2-1.1 5.5-2.7 1.2-5.5-.2-5.5-2.8 0-1.7-1.2-1.8-2.8-.2-1 1-1.7 1-3.2 0-1.1-.6-3-1.2-4.3-1.2-3.6 0-8.7-2-8.7-3.4 0-.7.9-2.1 2-3.1 2.9-2.6 2.1-3.6-3.6-5.1-5.8-1.5-8.4-1-8.4 1.7 0 1.4-.7 1.9-2.6 1.9-2.4 0-2.5-.3-1.9-2.8 1.4-5.1 1.2-5.7-2-5.7-2.2 0-3.1.5-3.3 2-.5 2.8-1.2 3.3-5.2 4-1.9.3-3.9 1-4.6 1.6-.6.5-1.8.7-2.7.3-.9-.3-2.4.3-3.6 1.5-1.2 1.2-2.5 2.1-3 2.1-2 0-3.5-3.5-3.5-8.1V99h-3.8c-2.1 0-5.5.7-7.5 1.5-4.6 1.9-4.3 2-4.3-1.6 0-1.8-.7-3.7-1.4-4.3-2-1.5-2.9-5.7-1.7-7.6.8-1.2 1.4-1.1 3.5.9 2.8 2.6 2.8 2.6 10.7-1.5 1.5-.8 3.7-1.5 5-1.7 3.2-.5 3.5-2.5.5-3.8-1.9-.9-2.9-.9-4 0-.7.6-3.7 1.4-6.5 1.8-4.5.5-5.4.3-6.7-1.5-1.6-2.4-4.4-1.9-4.4.7-.1 1.5-.2 1.5-1.3-.1-.9-1.1-1.8-1.4-2.8-.7-3.1 2-8.4 1-11.4-2.1-2.5-2.6-2.7-3.3-1.5-4.1 2.2-1.4 12 1.2 12 3.2 0 .5.5.9 1 .9.6 0 1-.6 1-1.3 0-.6 1.1-1.7 2.5-2.4 2-.9 2.5-.8 2.5.3 0 .8.5 1.4 1 1.4.6 0 1-.6 1-1.4 0-1 .9-1.4 2.7-1.3 2.2.2 2.9-.3 3.1-2.2.5-3.5-1.4-4.9-3.5-2.5-1 1.1-2.6 1.8-3.5 1.6-.9-.2-2.8.4-4.2 1.3-2.4 1.6-2.7 1.6-5.1-.3-4.3-3.4-16.5-2.7-16.5.9 0 2.8-4.5 2.5-7.5-.6-2.5-2.4-6.6-2.8-9.6-.9-1.8 1.1 1.9 3.4 5.3 3.4 1.7 0 2.8.5 2.8 1.4 0 .8 1.2 1.7 2.8 2.1 6.8 1.6 9.7 7.1 5.1 9.5-1.7 1-1.9 1.7-1.4 5.4l.7 4.3-6.5.5c-4.4.4-7.5 1.3-9.5 2.7-1.7 1.1-4.1 2.1-5.5 2.1-2.3 0-2.5.3-2.2 4.7.2 2.7-.1 5.7-.5 6.8-.6 1.5-.9 1.6-.9.4-.1-.9-1.1-2.1-2.3-2.7-1.3-.6-1.7-1.1-1-1.1 1.7-.1 1.5-2.1-.3-2.1-.8 0-1.5-.9-1.5-1.9 0-1-1.5-3.2-3.4-4.9-3.4-2.9-4.8-3.4-16.3-4.8-2.9-.3-5.3-1-5.3-1.4 0-1.5 4-2.2 9.3-1.5 8.8 1.1 11.3 2.3 14.3 6.8 1.6 2.3 3.3 4.5 3.7 4.8.5.4 1 1.8 1 3.3.1 1.4.5 2.6 1 2.6 2 0-.6-11.8-2.8-12.6-.8-.3-1.7-1.9-2-3.6-.9-4-6.2-9.8-9-9.8-5.8 0-16.4-6-12.9-7.4 1.9-.7 4.4.3 4.4 1.9 0 1.3 2.2 2.5 4.3 2.5.7 0 .3-.7-.7-1.5-2.4-1.8-1.5-3 1.2-1.6 5.8 3.1 10-7 4.9-11.7-2.5-2.3-4.7-2.9-4.7-1.2 0 2.1-2 .9-2.6-1.6-.4-1.7-1.8-3.1-4.1-4-3.7-1.6-5.2-1.2-15.7 4.2-2.6 1.4-5 2.3-5.3 2-1.1-1 1.1-2.8 7.2-5.6 6.8-3.2 8.5-4.8 6.5-6-.6-.4-1.2-1.1-1.1-1.6 0-1-2.6-2.5-7.6-4.6-3.9-1.5-4.3-2.8-1-2.8 1.3 0 3.4 1.1 4.7 2.5 1.3 1.4 3.2 2.5 4.2 2.5 3.7 0 10.4 4.4 16.4 10.6 3.4 3.5 6.4 6.4 6.8 6.4.3 0 .6-1.5.6-3.4s.3-4.2.7-5.1c.5-1.5.9-1.2 2.3 1.5 1.6 3 1.7 3.1 3.4 1.5.9-1 1.5-2.3 1.3-3-.3-.6-.1-1.8.3-2.5 1.2-2-.6-4.7-4.3-6.6-5-2.6-6-5-3.1-7.8 2.2-2.2 5.1-2 7.2.5.9 1.2 2.3 2.7 3 3.5.7.7 1.5 2.7 1.9 4.4.5 2.9.8 3.1 3.2 2.3 1.4-.4 6-.8 10.2-.8 5.1 0 8.3-.5 10-1.6 1.3-.9 3.6-1.9 5-2.2 2-.5 2.9-1.7 4.1-5.4 1.1-3.3 1.3-5.2.6-6.1-1.5-1.8-.7-1.5 5.3 1.8 3 1.6 5.7 3 6.2 3 1.5 0 .6-2.6-1.8-5.4-1.4-1.6-2.5-3.4-2.5-4 0-1.8 5.2-8.5 7.1-9.1 1-.3 2.1-1.4 2.4-2.4.8-2.7 4-3.2 5.4-1 .6 1.1 1.8 1.9 2.6 1.9 1.6 0 1.6.1 2 3.8.3 2.8 2.8 4.8 7.5 6.2 5.8 1.6 8.3 3.8 7.5 6.7-.6 2.5-.5 2.5 3.8 1.9 4.4-.7 4.5-.6 4.9 2.3.2 1.7.2 3.4-.1 3.8-1.1 1.5-7.3 5.5-8.9 5.7-.9.2-1.8.9-2 1.6-.3.9.2 1.1 1.7.7 1.7-.4 2.2 0 2.8 2 .3 1.5.1 3.3-.6 4.2-2.3 3.2-2.3 4.2 0 6.4 2.7 2.5 7.9 5.1 8.7 4.2.3-.3-.9-1.7-2.6-3.2-4.1-3.4-4.1-6.5 0-10.2 2.6-2.3 3.2-3.6 3.2-7 .1-2.2.6-4.1 1.1-4.1.6 0 3-1.6 5.4-3.5 2.4-1.9 5-3.5 5.7-3.5 1.3 0 1.6-.4 1.8-3.3.1-.7-1.6-1.4-3.9-1.7-3.3-.4-4.1-.9-4.4-3-.4-2.9-5.6-8-8.2-8-1 0-3-1.1-4.5-2.5-2.6-2.4-5.4-3.3-5.4-1.7 0 .4 1.3 1.9 2.9 3.4 1.5 1.5 3.4 4.1 4.1 5.8.7 1.6 1.6 3 1.9 3 .4 0 2.2 1.1 3.9 2.4 2.8 2 3 2.5 1.7 3.6-1.2 1-2.2.5-5.6-2.9-2.3-2.3-4.6-4.1-5.1-4.1-1.3 0-7.8-7-9.5-10.3-1.4-2.8-1.4-2.9 1.4-2.5 2.5.3 2.9-.1 3.7-3.5.7-2.7.6-4.4-.2-5.8-2.5-3.9-1.6-4.6 5.6-4.5l6.7.1.3 5.9.3 5.8 3.4-.4c2.2-.2 3.6.1 3.9.9.3.7 1.4 1.3 2.5 1.3s2.1.5 2.3 1.2c.3.7 1.2.9 2.2.5 1.6-.6 1.7-1.4 1.2-4.9-.6-3.6-.4-4.5 1.5-5.9 1.6-1.2 2.2-2.8 2.3-5.8l.1-4.1h-7.7c-4.5 0-7.8.4-7.8 1 0 .5-1.1 1-2.5 1s-2.5-.4-2.5-.9-11.5-.9-25.5-.9c-22.2-.1-25.3.1-24.1 1.4 2.7 2.7 3 5.6.7 7.5-1.1.9-2.1 2.4-2.1 3.3 0 1.2.7 1 3.6-.9 2-1.4 4.1-2.5 4.6-2.5 1.5 0 4.1 6.7 3.5 9.1-1.1 4.3-3.1 6.3-5.3 5.2-2.8-1.5-4.4-.5-4.4 2.8 0 3.5-1.4 3.7-3.5.5-1.5-2.3-1.5-2.7 0-5 1-1.4 2.1-2.3 2.6-2 .5.3.9-.4.9-1.6 0-1.8-.5-2-4.2-1.8-4 .3-4.3.1-4-2 .1-1.3-.5-3.3-1.3-4.5-2.1-3-1.9-4.5 1.3-7.2l2.7-2.4-6.2-.1c-6.1 0-6.3.1-6.3 2.6 0 3.3-3.3 3-3.8-.4l-.3-2.2h-28C165.8 0 162 .2 162 1.5c0 .8-.9 1.5-2 1.5s-2-.7-2-1.5c0-1.2-1.5-1.5-7.4-1.5h-7.3l.2 4.2c.2 2.5-.3 4.7-1.1 5.6-1.2 1.1-1.4 1.1-1.5-.5-.1-1-.2-2.5-.3-3.3 0-.8-1.9-2.5-4.1-3.7C133.1.5 130.8.1 120.8.1c-11.4-.1-13 .3-10.7 2.6 1.9 1.9.6 5.8-2 6.1-2.7.4-4.1-1.2-4.1-4.9 0-2.9-2.1-4.4-3.8-2.7-.7.7-1.7.6-3.2-.2-1.8-.9-2.5-.8-4.1.6-2.4 2.2-2.4 3.4 0 3.4 1.1 0 2.2.4 2.5.9 1.1 1.8-.6 4.1-3 4.1-2.2 0-2.4.4-2.4 4.3 0 4.3-1.3 6.7-3.7 6.7-.7 0-1.3-1.1-1.3-2.6 0-1.7-1.2-3.8-3.6-5.9-3.5-3.3-3.6-3.4-2.6-7.9l1-4.6H59.3l-.6 2.9c-.3 1.5-.4 3.7-.1 4.8.4 1.3 0 2.2-1 2.6-2.3.9-2 3.4.5 4.2 2.1.7 2.1 2.1.3 6.9-.3.9-.1 1.6.5 1.6s1.1.7 1.1 1.5c0 1.7-1.6 2-2.5.5-1.1-1.7-2.4-1.1-4 2-1.9 3.8-4 4-3.1.4.5-1.9.1-3.3-1.4-4.8-1.4-1.6-2.3-4.5-2.9-9.5-.5-3.9-1.4-7.8-2-8.5-.6-.7-.9-2.1-.5-3 .5-1.3 0-1.6-2.5-1.6-2.4 0-3.1.4-3.1 1.9zM144.9 14c.9.1 4.7 1.6 8.6 3.5 4.3 2.1 7.5 3 8.4 2.6.9-.6 1-1 .2-1.5-.6-.4-1.1-.2-1.1.4 0 .7-1.2.4-3-.7-3.1-1.8-4-4.3-1.6-4.3.8 0 2.2.7 3.1 1.6.9.9 1.7 1.5 1.8 1.3.2-.2.8-1.6 1.5-3.2 1-2.3 1.7-2.7 5.2-2.7 4.5 0 5.3 1.9 2.4 5.2-1.4 1.4-1.4 2-.4 3.3 1 1.2.8 1.6-1.3 2.4-2.2.9-3.7 2.9-3.7 5.1 0 .4 2.3 2.2 5 4 2.8 1.8 5 3.6 5 4.1 0 .5.7.9 1.5.9s1.5-.2 1.5-.5-.7-2.2-1.5-4.2c-1.7-4.1-1.8-4.4-.7-4.1.4.1 1.9-.6 3.5-1.6 2.2-1.5 3-1.6 4.2-.6 1.9 1.6 1.9 8.4 0 10.4-.8.8-1.5 2.4-1.5 3.5 0 2.5-1.7 2.7-4.6.6-1.2-.8-5.2-1.6-9-1.8-3.8-.2-8.4-1.1-10.1-2.1-3.6-1.8-6-2.1-6.5-.6-.1.5-2.9-.5-6-2.4-3.8-2.4-6.4-3.3-7.9-2.9-1.7.5-2 .3-1.3-.8.5-.8.7-2.2.6-3.1-.4-2.5 1.6-5.8 3.6-5.8 1 0 2.5.9 3.5 2 .9 1.1 2.9 2 4.4 2 3.2 0 3.2.1-3.7-3.7-4.3-2.3-6.1-2.8-7.9-2.1-2.8 1-4.2.1-2.1-1.3 1.1-.8 1-.9-.7-.4-2.6.7-6.3-.2-6.3-1.6 0-.5.7-.9 1.5-.9s1.5-.4 1.5-.9c0-1.6 4.3-1.8 8.4-.4 2.1.7 4.6 1.3 5.5 1.3zm-67.1 2.1c2.6 4.5 1.9 6.8-2.2 7-1.7.1-1.7.2-.3.6.9.2 1.7 1.3 1.7 2.4 0 1 .5 1.9 1.1 1.9 1.6 0 .6 4.5-1.1 4.5-.8.1-2.8.7-4.4 1.5-2.6 1.3-3 1.3-4.5-.7-1.3-1.5-2.5-1.9-4.5-1.6-2.6.5-2.8.4-2.1-1.8.4-1.3 1.8-3.2 3.1-4.2S67 23 67 22s1.1-2.7 2.5-3.8c1.4-1.1 2.5-2.9 2.5-4.1 0-3.6 3.3-2.4 5.8 2zm148.7 7.5c5.7 5.8 6.5 8 4.1 12.3-.8 1.4-1.2 4-.9 6.1.3 2.3.1 4-.7 4.5-1.7 1.1-9-2.5-9-4.5 0-2.3-3-5.9-3.6-4.3-1.4 3.3-6.4-.5-6.4-4.9 0-1.3 5.2-.1 6.3 1.5.5.7.6.1.3-1.5-.4-1.8 0-3.2 1.1-4.4 1.1-1.1 1.6-2.9 1.4-5-.2-3.1.4-5.4 1.5-5.4.3 0 2.9 2.5 5.9 5.6zM68.3 43.5c-2 2.5-4.1 4.5-4.6 4.5-.4 0-.6.4-.3.8.3.5-1.9 3.5-4.8 6.7-6.9 7.4-9.6 15.6-9.6 28.7 0 4.9-.4 8.8-.9 8.8-2.1 0-3.9-3.2-4.6-7.9-.5-4.1-1.1-5-3.1-5.5-3.6-.9-4.4-5.4-1.4-7.8 1.3-1 2.9-1.7 3.7-1.4.7.3 1.3-.1 1.3-.9s-.9-1.5-1.9-1.5c-2.1 0-3.6-4-2.6-7.1.6-1.8 2.2-2.4 5.3-2 .8.1 2.5-.5 3.8-1.4 1.4-.9 3.3-1.4 4.3-1 1.2.4 2.9-.8 5.7-4.1 4.8-5.7 12.3-13.4 13-13.4.3 0-1.2 2-3.3 4.5zm173 64.1c.9.3 1.3 1.3 1 2.5-.3 1.1-1.1 1.8-1.8 1.5-1.6-.6-3.5 1.3-3.5 3.6 0 2.2 1.4 2.3 5.1.1 1.5-.9 3.1-1.4 3.5-1.1.8.9-4.8 7.8-6.2 7.8-.6 0-1.8 1-2.7 2.2-2.1 3.3-3.1 1.6-1.7-2.8 1-2.9 1-3.9.1-4.2-.6-.2-1.8-1-2.5-1.8-1.9-1.9-3.2-1.8-8.3.7-5.3 2.6-7.7 2.2-8.1-1.2-.5-3.9 2-5.4 5.6-3.5 2.6 1.3 3.1 1.3 5.2-.1 1.2-.9 2.5-1.2 2.9-.6 1.4 2 5.9 1.3 7.5-1.2 1.8-2.7 1.8-2.7 3.9-1.9zm53.3 5.5c2 1.9 2.8 2 6.1 1.2 4.8-1.2 9.3.1 9.3 2.8 0 3.1-4.9 4.9-12.8 4.6-7.5-.2-9.6.5-6.9 2.6 1.5 1.1 2.1 2.8 1.8 5.3 0 .6-1.4 1.7-2.9 2.3-1.5.6-4 2.5-5.6 4.1-1.5 1.7-3.4 3-4.2 3-1.6 0-1.8.9-.4 3 1.2 1.9-.6 4-3.6 4-1.4 0-3-1-4-2.5-1.2-1.8-2-2.2-3.2-1.5-1 .5-2.5 1.1-3.4 1.4-1.5.4-1.6 1-.8 3.1 1.1 2.9.6 4.5-1.4 4.5-3.4 0-5.4-6.5-2.7-8.6 1.2-1 1-1.4-1.6-2.7-3.9-2.1-5.3-.7-5.3 5 0 4.8-1.9 6.5-5.1 4.5-2.7-1.7-5-1.5-4.3.3.8 2-1.1 4.1-4.3 5-2.1.5-3.1.1-4.4-1.6-2.4-3.2-5.4-3.4-7.3-.4-.9 1.4-2.3 2.5-3.1 2.5-.8 0-1.5.4-1.5.9s-1.5.9-3.2.9c-1.8-.1-5.9.1-9 .5-5.6.5-5.8.5-5.8-1.8 0-1.8.4-2.2 2-1.8 1.1.3 2.3 1 2.6 1.5.6 1 3.4-.9 3.4-2.4 0-.5-1-1.2-2.2-1.7-1.7-.6-2.1-1.6-2.1-4.7 0-2.2.4-4.8 1-5.9.6-1.1 1.1-3.7 1.1-5.9.1-3-.3-3.9-1.8-4.3-3.1-.8-2.4-2.8 1-3.1 5-.4 7 1.3 7 5.9 0 2.2-.5 5-1.1 6.1-.8 1.5-.8 2.7.2 4.4.7 1.3 1.6 2.4 1.9 2.4 1.1 0 3.9-6.3 3.3-7.3-.3-.4.4-1.1 1.6-1.4 1.5-.4 2.1-1.3 2.1-3.4 0-2.9.1-2.9 5.5-2.8 4.7.1 5.9.6 7.8 2.8 2.1 2.6 2.7 2.7 9 2.3 7.8-.5 9-2.4 2.7-4.3-2.2-.7-3.8-1.4-3.5-1.7 1-1 6.5-1.1 6.5-.1 0 1.1 10.1 5.9 12.5 5.9.8 0 2.4.9 3.5 2 1.8 1.8 4 2.7 4 1.6 0-.2-.7-1.7-1.5-3.2-.8-1.6-1.5-3.9-1.5-5.1 0-2.4-4.7-5.3-8.5-5.3-1.2 0-4.5-.7-7.4-1.6-4.4-1.3-5.2-1.8-4.9-3.7.4-2.7 3.9-3.4 5.8-1.2 2 2.4 3.7 1.8 6.1-2.5 2.1-3.7 4.9-5.4 4.9-3 0 .5.6 1 1.4 1 .8 0 2.8 1.1 4.4 2.5 3.7 3.1 5.1 3.1 7.7 0 1.5-1.9 8.6-5.5 12.4-6.4.3-.1 1.5.9 2.7 2zm27.7 9.3l-.2 2.8 5.4-.7c3-.3 6-.3 6.7.1.7.5 3.1.9 5.3 1 2.2.1 4.1.7 4.3 1.3.2.6.9.8 1.4.5.6-.4.8-.2.4.4-1.2 2.1 1.4 2.3 7.3.6 5.6-1.5 6.1-1.5 9 .2 5.5 3.2 5.3 7.6-.2 6.7-2.3-.3-3.7 0-4.6 1.1-1.7 2-5.5 2.1-7.1.1-1.7-2.1-3.7-1.9-5 .4-1.4 2.8-1.4 2.8 3.1 5.1 3.1 1.6 5 2 8.3 1.5 4.6-.7 7.4 1.1 6.2 4-.3 1 .3 1.7 2 2.1 2.8.7 2.7 2.7-.2 3.3-1 .2-2.2.8-2.5 1.3-.4.6-2.1.3-4.4-.6-4.1-1.7-12.1-2.3-9.5-.6 1.2.7 1.1 1.2-.5 3-1.5 1.7-2.6 1.9-6.6 1.4l-4.8-.7.6 6.8c.5 5.7.3 7-1.1 8-.9.7-2.6 1.1-3.6.8-2.5-.7-2.7 1.2-.3 2.1 1.5.6 1.5.9.3 1.6-1.2.7-1.1 1.4.5 4.4 2.7 4.9 4.3 5.3 5.1 1.1.3-2 1.2-3.5 2-3.5s2-1.6 2.8-3.5c1.2-2.7 2.1-3.5 4.1-3.5 1.4 0 3.4-.5 4.5-1.2 2.2-1.4 3.9-.3 2.2 1.4-.8.8-.8 1.5-.1 2.4 1.8 2.2-1.7 4.8-6.3 4.7-3.3-.2-3.8.1-3.3 1.6.3.9-.2 2.6-1 3.7-2.2 2.9-1.8 3.6 1.4 2 2.1-1.1 3.1-1.2 4-.3 2.5 2.5 1.2 4.3-4.1 5.5-2.9.7-6.3 1.5-7.6 1.9-1.4.3-3-.1-4.2-1.2-1.9-1.7-2.1-1.7-5.5.1-2.9 1.6-3.9 1.6-6.8.6-1.8-.7-3.9-1.2-4.6-1.2-.7 0-1.9-.7-2.8-1.5-2.3-2.3-4.7-1.4-5.1 1.8-.2 1.6-1 3.1-1.8 3.4-1.1.4-1.2 1.7-.8 5.9 1 8.4-.2 9.3-13.2 9-6.4-.1-10.9-.7-11.6-1.4-.9-.9-.9-1.2 0-1.2.7 0 1.2-.7 1.2-1.6 0-1.3.8-1.5 3.5-1.2 2.7.3 3.6 0 4.1-1.4.6-1.9 4.6-3.4 6.2-2.4 1.1.6 2.4-3.3 1.6-4.6-.3-.4-1.3-.8-2.3-.8-2.8 0-4.1-1.9-3-4.8.8-2 .6-2.9-1.1-4.7-1.1-1.2-2-3.1-2-4.3 0-1.7-.8-2.3-3.7-2.8-2.1-.3-5.1-1.6-6.8-2.8-1.6-1.3-3.8-2.6-4.8-2.9-2.8-1.1-1.6-3.9 2.3-5.2 3.5-1.2 3.6-1.3 3.9-8.3.1-2 .6-2.3 4-2 2.2.1 4.7-.4 5.5-1.1 1.4-1.2 1.9-1.1 3.6.4 3.6 3.3 2.1 6.5-3.1 6.5-2.8 0-2.3 2.3 1 4.8 3.2 2.3 4.1 1.6 4.1-3.4 0-1.9.5-2.4 2.4-2.4 1.8 0 2.7.8 3.5 3.1.6 1.8 1.1 3.9 1.1 4.8 0 .9 1.1 2.4 2.5 3.3 1.8 1.4 3 1.6 4.9.8 3.4-1.2 3.4-4 .2-4-3.8 0-4.3-2.1-1-4.6l2.8-2.3 1.1 2.6c1 2.3 1.7 2.7 5.8 2.8 2.6 0 4.7-.2 4.7-.6 0-1.1 5.8-1.6 7.4-.7 1.4.8 1.5.2.9-3.7-.6-4.5-.5-4.7 3.9-8.8 2.5-2.3 4.8-5.3 5.1-6.7.3-1.4.9-3.7 1.2-5.1.5-1.9.2-2.8-1-3.3-1.2-.4-3.4 1-7.4 4.9-3.1 3-6.1 5.5-6.7 5.5-1.9 0-2.3 4.7-.5 6.5 1.2 1.2 1.3 1.9.5 3.3-1.7 2.7-4.8 2.2-5.2-.9-.2-1.8-1.3-3.1-3.8-4.2-1.8-.9-3.4-2.1-3.4-2.6 0-2 3.3-4.1 6.6-4.1 2.3 0 3.4-.5 3.4-1.4 0-.8.3-2.1.6-3 .5-1.2-.1-1.6-2.4-1.6-3.3 0-4.1-.7-5.9-5.8-.7-2.2-.8-4.4-.2-6.5.5-1.8.9-3.4.9-3.6 0-.2-1.3-.1-2.9.2-2.5.5-3 .3-3.4-1.9-.6-3.2 3.2-5.5 8.8-5.1 3.7.2 4 .4 3.8 3.1zm-128.8 36.7c.4.5 1.9.9 3.4.9 3.1 0 5.1 1.6 5.1 4.2 0 1.9 3.4 2.5 4.5.8.3-.6 2.6-1 5-1 4.6 0 5.5.9 5.5 6 0 4.1-1.3 4.4-5.5 1-4.4-3.5-4.3-3.5-6.7-1.4-1.4 1.4-2 1.4-3.3.4-.8-.7-1.2-1.6-.9-2.1.3-.5-1.1-.9-3-.9-2.6 0-3.6-.5-4.1-2-.8-2.4-1.5-2.5-4.1-.5-2.5 1.9-4.9 1.9-7.9-.1-2-1.3-2.3-2-1.4-3.6.6-1 2.4-2.7 4-3.7 2.7-1.7 3.3-1.7 6-.4 1.6.8 3.1 1.8 3.4 2.4zm11.1 16.1c.8 2.7 1.6 3.4 4.6 3.9 2 .3 4.4 1.2 5.3 1.9 1.4 1.1 2.1 1.1 4.6-.4 2.4-1.4 3.3-1.5 4.4-.6.8.7 1.5 1.8 1.5 2.4-.1 2.7-2 3.6-8.3 4.1-5.4.4-7.3.2-10.7-1.6-5.8-3-6.9-5.7-4.5-11.2 1.1-2.6 2.1-2.1 3.1 1.5zm166.5 8.4c1.2 1.1 2.2 1.3 3.6.6 1-.6 2.7-.6 4-.1 2.5.9 5.7 6.4 4.9 8.5-.3.7-.2 1.3.2 1.3 1.8-.3 3.2.2 3.2 1.1 0 .5-1.6 1-3.5 1-2.4 0-3.7.6-4.5 2-.6 1.1-1.7 2-2.5 2-.7 0-1.7-.9-2-2-.3-1.1-1.1-2-1.6-2s-.9-.5-.9-1.1c0-.7 1-.9 2.4-.5 3.5.9 4-.8 1.3-4.7-2.3-3.4-2.4-3.4-5.7-2.1-4.2 1.8-6.3.3-4.9-3.4 1-2.6 3.5-2.9 6-.6zm-88.7 6c.9.8 1.6 2.1 1.6 2.9 0 .7.7 1.5 1.5 1.9 2.4.9 1.8 5.3-1 7.2-1.3.8-2.9 1.3-3.5.9-.5-.3-1 0-1 .8 0 2.2-3.8 2.8-5.6.9-1.5-1.4-1.5-1.7.1-2.8 1-.8 2.2-1.5 2.8-1.7.7-.2.7-1-.1-2.2-1-1.9-3-2.3-11.2-2.5-3.6-.1-8-2-8-3.5 0-1.9 5.4-2.9 8-1.5 1.1.6 2.6.8 3.2.4 3.8-2.4 11.2-2.8 13.2-.8zm15 27.3c.6.5 2.8 1.4 4.9 2.1 2.7.8 3.7 1.7 3.5 2.8-.4 2.2-5.4 2.7-12.1 1.2-4.8-1-5.3-.9-6.9 1-.9 1.1-2.7 2-4.1 2-1.4 0-3.7.6-5.3 1.4-2.8 1.5-5.5.9-7-1.6-1-1.6 3.6-5 5.9-4.4 1.3.3 3.2-.5 5.3-2.2 2.6-2.1 4.5-2.7 9-2.9 3.2-.2 6.2.1 6.8.6zm16 13.8c-.2 2.3-1 4.3-2.4 5.3-1.3 1-1.7 1.9-1.1 2.5.6.6.7 1.6.1 2.5-.7 1.2-1.2 1.2-2.2.2-1.9-1.9-5.5-1.5-6.1.8-.3 1.1-1.3 2.3-2.4 2.6-5.5 1.8-7.3 2.8-7.3 4 0 .8.5 1.4 1 1.4.6 0 1 .9 1 2 0 1.5-.7 2-2.5 2-1.4 0-2.8-.7-3.1-1.5-.4-.8-1-1.2-1.5-.9-.5.3-.9.1-.9-.5 0-.5-1.3-1.8-2.9-2.7-1.6-1-3.4-2.7-3.9-3.9-.9-1.9-.6-2.1 2.1-2.3 1.7-.2 3.9-.9 4.8-1.8 1.2-1.1 2.6-1.3 5.5-.7 4.8 1 8.6.5 8.1-1-.2-.7-1.8-1.3-3.5-1.5-3.6-.4-4-1.7-1.6-5 1-1.5 2-2 2.7-1.4.7.4 3.1 1.4 5.3 2.1 4.3 1.4 6.6.9 6.3-1.2-.4-3 .2-4.6 1.9-5 2.6-.6 3-.1 2.6 4z" stroke-width=".1"/><path d="M343.5 6c0 5.2-.1 5.5-2.5 5.5-3.2.1-6.2-1.3-7.8-3.7-1.6-2.2-5.8-2.4-6.6-.2-1.1 3-.6 5.2 1.4 5.7 1.6.4 2 1.4 2 5.1 0 3.4.4 4.6 1.5 4.6.8 0 1.5-.9 1.5-1.9 0-1.1 1.2-2.5 2.8-3.4 4.1-2 7.2.2 7.2 5 0 2.5.5 3.6 1.8 4 1 .2 2.6 1.8 3.6 3.4 1 1.6 2.2 2.7 2.7 2.4 1.6-1.1 1-4.3-1.2-5.9-1.2-.8-3-2.8-4-4.5-1.5-2.5-1.6-3.1-.4-4.1 1-.8 1.1-1.9.4-4.3-.5-1.8-.9-3.3-.9-3.4 0-.2 1-.3 2.3-.3 1.2 0 2.7-.4 3.2-.8 2-1.4 5.6-7.2 5.1-8.1-.3-.5-3.2-.8-6.4-.8l-5.7.2V6zM38.3 131.9c-2.5 2.1-2.9 3.7-1.2 4.3.6.2 1.3 2.5 1.5 5.1.5 4.7.5 4.8-3.2 6.3-4.4 1.9-8 1.2-8.7-1.7-.5-1.7-1.1-2-3.6-1.4-1.7.3-3.6.3-4.3-.2-.7-.4-3.4-.8-6-.8-4 0-4.8.3-4.8 1.8s.5 1.7 2.8 1.2c1.6-.3 4.8-.1 7.3.4 6.6 1.5 9.3 6.3 4.2 7.4-4.8 1.1-5.4 2-4.7 6.6.4 2.4 1.7 5.5 2.9 6.8 1.8 2.2 2.4 2.4 4.3 1.4s2.2-1.8 1.7-4.4c-.8-4 1.8-10.3 4.4-11.2 2.3-.7 10.1-.4 10.1.4-.1 1.7-1.9 3.1-3.2 2.6-1.1-.4-1.8 0-2.2 1.3-.4 1-1.7 2.5-3 3.2-2.6 1.4-4.2 6-2 6 1.9 0 5.6 5.2 5.1 7.1-.3 1.1 1.6 4.3 4.7 8.2 3.1 4 7.1 10.8 10 17.5 2.7 6.1 5.3 10.9 5.7 10.7 1.1-.7.5-7.7-.8-10.1-.7-1.2-1.7-4.3-2.3-7-1.3-5.8-2.5-7.4-5.5-7.4-2.7 0-7.5-8.2-7.8-13.4-.2-2-1.2-4.5-2.5-5.9-2.5-2.6-2.9-6.5-.8-7.3 1.5-.6 7 1.9 9.9 4.5 1.8 1.5 2 1.4 4.1-1.2 2.4-3 4.7-3.5 6.6-1.2.7.8 2.4 1.5 3.7 1.5 2.1 0 2.4-.4 1.9-2.3-.3-1.2-.6-2.8-.6-3.4 0-.7-1.9-2.5-4.2-3.9-3.9-2.5-5.6-3.1-8.5-3.3-1.5-.1-.8-5.1 1.3-9.4l1.3-2.8-4.5.7c-5.8.8-7.7-.6-6.8-5.2.7-3.9.7-4-2.3-1.5zM0 277.8c0 .4 2.3 1.6 5.1 2.6 7.4 2.7 18.4 8.6 28.9 15.5 5.1 3.4 9.9 6.1 10.7 6.1.8 0 1.1.4.8 1-.3.5-.2 1 .4 1 2.8 0 1.1-2.9-3.8-6.5-12.4-8.9-20.8-13.5-32.9-17.9-7.8-2.8-9.2-3.1-9.2-1.8zM91 326.7c0 9-1.1 20.8-3.1 34.6-1.1 7.7-1.1 7.8 1.9 14 1.7 3.4 4.5 7.8 6.2 9.7 1.9 2.1 2.7 2.6 2.1 1.3-.8-1.5-.8-2.2 0-2.5.6-.2-.1-2-1.6-4.1-1.4-2.1-2-3.5-1.4-3.1.7.4.6-.3-.2-1.7-2.5-4.4-3.7-13.2-3.2-22.4.8-15.5.8-34.5.1-34.5-.5 0-.8 3.9-.8 8.7zM323.8 347.7c-1 .2-1.8.9-1.8 1.4 0 .5-.5.9-1.2.9-1.1 0-12.1 8-14.3 10.4-.5.6-3 2.7-5.5 4.6-5.4 4.2-6.2 5.2-7.7 11l-1.2 4.5.6-4.8c.6-5.2-1.2-6.7-2.3-2-.4 1.6-1 3-1.4 3.3-.4.3-1.9 5-3.2 10.5l-2.5 10-22.4-.1c-17.8-.1-23.6-.4-28.2-1.8-4.1-1.2-9.6-1.7-19.6-1.7-13.1 0-25.3-.9-31.3-2.3-3.6-.8-3.5.5.3 4.9l3.1 3.5h83.2l83.1-.1-3-2.5c-3.5-2.8-8.4-4.4-13.8-4.4-5.2 0-3.8-1.7 2.1-2.5 8.9-1.2 8.8-1.1 10.7-6.7.9-2.9 2.5-7 3.5-9.1 1-2 1.4-3.7 1-3.7-.5 0-1 .6-1.3 1.2-.3 1-.7 1-1.9 0-1.3-1-2.2-1-5.2.5-2 .9-3.6 2.3-3.6 3.2 0 1.1.4 1 1.5-.5 1.1-1.3 1.4-1.4 1.3-.4-.2.8.3 1.4 1 1.3 1.7-.4 1.5 2.2-.3 3.7-.8.7-1.5 2-1.5 2.8 0 1.2-.3 1.3-1.2.4-1.4-1.4-3.2-1.6-2.4-.3.3.5-.1 1.2-1 1.5-1 .4-1.3.2-.9-.7.4-.6-.2-.3-1.2.9-1.8 2-5.5 4.4-6.7 4.4-.3 0-.3-1.5 0-3.3.8-3.9 11.8-15.6 17.9-18.8 2.5-1.3 4.6-3.3 5.2-5 1.4-3.6.7-4.3-1.8-1.8-4.9 4.9-14.7.4-13.5-6.3.3-1.8.3-2.7 0-2-.3.6-1 1-1.5.6-.5-.3-.9 0-.9.5 0 .6-1.8 1.1-4 1.1-2.9 0-4.2-.5-5-2-.9-1.8-.8-2 1.6-2 2.2 0 2.5-.2 1.4-1.5-.7-.8-1.5-1.4-1.9-1.4-.3.1-1.4.3-2.3.6zm11.1 13.4c3.6 1.3 3.9 2.4 1.1 3.9-1.1.6-1.8 1.5-1.5 1.9.2.5-1.1 2.1-3.1 3.6-2.9 2.2-4.2 2.6-6.7 2-7.9-1.7-8.4-1.7-9 .5-.7 2.5-2.4 2.6-2.2.1.1-2.1 6.9-7.7 13.2-11 4.6-2.4 4.2-2.4 8.2-1zM160 384.9c-2.1.6-2.2.8-.7 1.4 2.3.9 2.2 2.4-.3 3.7-1.7.9-2 .8-1.7-1.2.2-2.6.4-2.6-9.8-.3-12.1 2.7-16.4 3.4-18.8 2.9-3.2-.8-3.7-.7-8.3 1-2.3.8-6.5 1.8-9.5 2.1-9.2 1-9.8 1.3-9.2 3.5.5 1.9 1.4 2 21.4 2h20.8l3.7-4.5c4.2-4.9 6.1-6 7.9-4.5.7.6 1.9.8 2.8.4.8-.3 2.5 0 3.7.6 1.5.8 2 .8 1.6.1-1.1-1.8.3-1.3 2.6.9 1.2 1.1 2.8 2 3.5 2 .8 0 1.1.5.8 1-.3.6.1 1 1 1s1.4.4 1.1.9c-.4.5.3.7 1.4.4 1.1-.3 2-.9 2-1.3 0-1.3-4.1-6-5.2-6-.6 0-.6.6.2 1.5 1.6 1.9.3 2-1.5.1-.8-.7-1.1-1.6-.8-2 .4-.3-.3-.6-1.5-.6s-2.2-.4-2.2-.9-.3-1.6-.6-2.4c-.4-1.1.2-1.7 1.8-2 1.8-.3 1.7-.4-.7-.5-1.6 0-4.1.3-5.5.7z"/></svg>
